{
 "cells": [
  {
   "cell_type": "code",
   "execution_count": 1,
   "metadata": {
    "collapsed": true
   },
   "outputs": [],
   "source": [
    "import os\n",
    "import cv2\n",
    "from PIL import Image\n",
    "import matplotlib.pyplot as plt\n",
    "import numpy as np\n",
    "\n",
    "import mido\n",
    "import pretty_midi"
   ]
  },
  {
   "cell_type": "code",
   "execution_count": 2,
   "metadata": {
    "collapsed": true
   },
   "outputs": [],
   "source": [
    "midi_file_path = 'midi_danielcopy/bwv871/bwv871_02_smd.mid'"
   ]
  },
  {
   "cell_type": "code",
   "execution_count": 3,
   "metadata": {},
   "outputs": [
    {
     "name": "stdout",
     "output_type": "stream",
     "text": [
      "note_on channel=0 note=67 velocity=41 time=1.0166666666666666\n",
      "note_on channel=0 note=63 velocity=46 time=0.6833333333333333\n",
      "note_off channel=0 note=67 velocity=41 time=0.09479166666666666\n",
      "note_on channel=0 note=65 velocity=50 time=0.540625\n",
      "note_off channel=0 note=63 velocity=53 time=0.08020833333333333\n",
      "note_on channel=0 note=67 velocity=46 time=0.5489583333333333\n",
      "note_off channel=0 note=65 velocity=56 time=0.03125\n",
      "note_on channel=0 note=60 velocity=43 time=0.6052083333333333\n",
      "note_off channel=0 note=67 velocity=54 time=0.06770833333333333\n",
      "note_on channel=0 note=65 velocity=43 time=0.5885416666666666\n",
      "note_off channel=0 note=60 velocity=31 time=0.1\n",
      "note_on channel=0 note=63 velocity=36 time=0.5208333333333334\n",
      "note_off channel=0 note=65 velocity=31 time=0.084375\n",
      "note_on channel=0 note=62 velocity=44 time=0.209375\n",
      "note_off channel=0 note=63 velocity=37 time=0.06979166666666667\n",
      "note_on channel=0 note=63 velocity=41 time=0.284375\n",
      "note_off channel=0 note=62 velocity=36 time=0.06666666666666667\n",
      "note_on channel=0 note=72 velocity=45 time=0.5770833333333333\n",
      "note_on channel=0 note=70 velocity=50 time=0.6572916666666666\n",
      "note_on channel=0 note=62 velocity=32 time=0.004166666666666667\n",
      "note_off channel=0 note=63 velocity=52 time=0.046875\n",
      "note_off channel=0 note=72 velocity=37 time=0.0125\n",
      "note_on channel=0 note=60 velocity=35 time=0.5666666666666667\n",
      "note_on channel=0 note=72 velocity=55 time=0.0020833333333333333\n",
      "note_off channel=0 note=70 velocity=54 time=0.06979166666666667\n",
      "note_off channel=0 note=62 velocity=41 time=0.071875\n",
      "note_on channel=0 note=74 velocity=56 time=0.4864583333333333\n",
      "note_on channel=0 note=58 velocity=31 time=0.028125\n",
      "note_off channel=0 note=72 velocity=55 time=0.010416666666666666\n",
      "note_off channel=0 note=60 velocity=42 time=0.051041666666666666\n",
      "note_on channel=0 note=67 velocity=47 time=0.553125\n",
      "note_off channel=0 note=74 velocity=49 time=0.07395833333333333\n",
      "note_off channel=0 note=58 velocity=48 time=0.4010416666666667\n",
      "note_on channel=0 note=72 velocity=50 time=0.14270833333333333\n",
      "note_on channel=0 note=58 velocity=39 time=0.0020833333333333333\n",
      "note_off channel=0 note=67 velocity=36 time=0.09791666666666667\n",
      "note_off channel=0 note=58 velocity=50 time=0.07708333333333334\n",
      "note_on channel=0 note=57 velocity=26 time=0.058333333333333334\n",
      "note_off channel=0 note=57 velocity=54 time=0.046875\n",
      "note_on channel=0 note=58 velocity=49 time=0.03958333333333333\n",
      "note_off channel=0 note=58 velocity=59 time=0.03854166666666667\n",
      "note_on channel=0 note=57 velocity=42 time=0.06041666666666667\n",
      "note_off channel=0 note=57 velocity=57 time=0.036458333333333336\n",
      "note_on channel=0 note=58 velocity=49 time=0.030208333333333334\n",
      "note_off channel=0 note=58 velocity=56 time=0.065625\n",
      "note_on channel=0 note=57 velocity=46 time=0.036458333333333336\n",
      "note_on channel=0 note=70 velocity=53 time=0.027083333333333334\n",
      "note_off channel=0 note=72 velocity=33 time=0.10625\n",
      "note_on channel=0 note=69 velocity=60 time=0.19166666666666665\n",
      "note_off channel=0 note=70 velocity=52 time=0.04375\n",
      "note_off channel=0 note=57 velocity=51 time=0.28541666666666665\n",
      "note_on channel=0 note=70 velocity=54 time=0.027083333333333334\n",
      "note_on channel=0 note=55 velocity=33 time=0.011458333333333333\n",
      "note_off channel=0 note=69 velocity=54 time=0.0125\n",
      "note_on channel=0 note=67 velocity=41 time=0.625\n",
      "note_off channel=0 note=55 velocity=41 time=0.14479166666666665\n",
      "note_on channel=0 note=68 velocity=48 time=0.49583333333333335\n",
      "note_off channel=0 note=70 velocity=56 time=0.075\n",
      "note_on channel=0 note=65 velocity=32 time=0.58125\n",
      "note_off channel=0 note=67 velocity=35 time=0.109375\n",
      "note_on channel=0 note=67 velocity=43 time=0.521875\n",
      "note_off channel=0 note=68 velocity=52 time=0.06979166666666667\n",
      "note_on channel=0 note=72 velocity=43 time=0.6177083333333333\n",
      "note_on channel=0 note=63 velocity=30 time=0.0020833333333333333\n",
      "note_off channel=0 note=67 velocity=56 time=0.06979166666666667\n",
      "note_off channel=0 note=65 velocity=36 time=0.07291666666666667\n",
      "note_off channel=0 note=72 velocity=52 time=0.46249999999999997\n",
      "note_on channel=0 note=65 velocity=40 time=0.021875\n",
      "note_on channel=0 note=62 velocity=38 time=0.6354166666666666\n",
      "note_off channel=0 note=63 velocity=43 time=0.14375\n",
      "note_on channel=0 note=60 velocity=43 time=0.12916666666666665\n",
      "note_off channel=0 note=62 velocity=53 time=0.017708333333333333\n",
      "note_on channel=0 note=59 velocity=39 time=0.346875\n",
      "note_off channel=0 note=60 velocity=36 time=0.058333333333333334\n",
      "note_on channel=0 note=55 velocity=47 time=0.5666666666666667\n",
      "note_on channel=0 note=63 velocity=38 time=0.0125\n",
      "note_off channel=0 note=65 velocity=37 time=0.24479166666666666\n",
      "note_on channel=0 note=62 velocity=47 time=0.04583333333333333\n",
      "note_off channel=0 note=63 velocity=36 time=0.052083333333333336\n",
      "note_off channel=0 note=59 velocity=41 time=0.21041666666666667\n",
      "note_on channel=0 note=51 velocity=51 time=0.07916666666666666\n",
      "note_off channel=0 note=62 velocity=57 time=0.0125\n",
      "note_on channel=0 note=67 velocity=43 time=0.014583333333333334\n",
      "note_on channel=0 note=60 velocity=42 time=0.005208333333333333\n",
      "note_off channel=0 note=55 velocity=54 time=0.12083333333333333\n",
      "note_on channel=0 note=53 velocity=58 time=0.48125\n",
      "note_on channel=0 note=65 velocity=45 time=0.005208333333333333\n",
      "note_off channel=0 note=67 velocity=32 time=0.0625\n",
      "note_off channel=0 note=51 velocity=35 time=0.090625\n",
      "note_on channel=0 note=55 velocity=54 time=0.48854166666666665\n",
      "note_on channel=0 note=63 velocity=44 time=0.02395833333333333\n",
      "note_off channel=0 note=65 velocity=57 time=0.03854166666666667\n",
      "note_off channel=0 note=53 velocity=56 time=0.015625\n",
      "note_on channel=0 note=48 velocity=48 time=0.55\n",
      "note_off channel=0 note=55 velocity=46 time=0.065625\n",
      "note_off channel=0 note=63 velocity=54 time=0.3729166666666667\n",
      "note_off channel=0 note=60 velocity=35 time=0.03125\n",
      "note_on channel=0 note=53 velocity=46 time=0.12708333333333333\n",
      "note_on channel=0 note=59 velocity=38 time=0.009375\n",
      "note_on channel=0 note=63 velocity=44 time=0.015625\n",
      "note_off channel=0 note=63 velocity=61 time=0.17395833333333333\n",
      "note_on channel=0 note=62 velocity=48 time=0.036458333333333336\n",
      "note_off channel=0 note=48 velocity=31 time=0.019791666666666666\n",
      "note_off channel=0 note=62 velocity=63 time=0.051041666666666666\n",
      "note_on channel=0 note=63 velocity=51 time=0.04375\n",
      "note_off channel=0 note=63 velocity=64 time=0.042708333333333334\n",
      "note_on channel=0 note=62 velocity=58 time=0.014583333333333334\n",
      "note_off channel=0 note=62 velocity=62 time=0.06145833333333333\n",
      "note_on channel=0 note=63 velocity=54 time=0.03229166666666666\n",
      "note_off channel=0 note=63 velocity=65 time=0.03854166666666667\n",
      "note_on channel=0 note=62 velocity=56 time=0.026041666666666668\n",
      "note_on channel=0 note=51 velocity=45 time=0.00625\n",
      "note_off channel=0 note=53 velocity=51 time=0.06979166666666667\n",
      "note_on channel=0 note=50 velocity=49 time=0.20729166666666665\n",
      "note_off channel=0 note=51 velocity=46 time=0.025\n",
      "note_off channel=0 note=59 velocity=43 time=0.017708333333333333\n",
      "note_off channel=0 note=62 velocity=63 time=0.23541666666666666\n",
      "note_on channel=0 note=51 velocity=52 time=0.03125\n",
      "note_on channel=0 note=60 velocity=51 time=0.008333333333333333\n",
      "note_off channel=0 note=50 velocity=53 time=0.008333333333333333\n",
      "note_on channel=0 note=55 velocity=50 time=0.26458333333333334\n",
      "note_off channel=0 note=51 velocity=28 time=0.12291666666666666\n",
      "note_on channel=0 note=67 velocity=58 time=0.15104166666666666\n",
      "note_on channel=0 note=48 velocity=47 time=0.010416666666666666\n",
      "note_off channel=0 note=55 velocity=33 time=0.0625\n",
      "note_on channel=0 note=50 velocity=48 time=0.19479166666666667\n",
      "note_off channel=0 note=67 velocity=59 time=0.05625\n",
      "note_off channel=0 note=50 velocity=51 time=0.20208333333333334\n",
      "note_on channel=0 note=51 velocity=48 time=0.017708333333333333\n",
      "note_on channel=0 note=72 velocity=56 time=0.008333333333333333\n",
      "note_off channel=0 note=48 velocity=12 time=0.090625\n",
      "note_off channel=0 note=51 velocity=50 time=0.196875\n",
      "note_on channel=0 note=53 velocity=43 time=0\n",
      "note_off channel=0 note=60 velocity=26 time=0.08958333333333333\n",
      "note_off channel=0 note=53 velocity=62 time=0.1\n",
      "note_on channel=0 note=63 velocity=44 time=0.05\n",
      "note_on channel=0 note=55 velocity=42 time=0.013541666666666667\n",
      "note_off channel=0 note=55 velocity=52 time=0.26666666666666666\n",
      "note_on channel=0 note=57 velocity=46 time=0\n",
      "note_off channel=0 note=63 velocity=60 time=0.1875\n",
      "note_off channel=0 note=57 velocity=56 time=0.00625\n"
     ]
    },
    {
     "name": "stdout",
     "output_type": "stream",
     "text": [
      "note_on channel=0 note=62 velocity=42 time=0.07395833333333333\n",
      "note_on channel=0 note=58 velocity=38 time=0.00625\n",
      "note_off channel=0 note=62 velocity=61 time=0.12916666666666665\n",
      "note_on channel=0 note=66 velocity=53 time=0.14166666666666666\n",
      "note_on channel=0 note=62 velocity=45 time=0.0010416666666666667\n",
      "note_off channel=0 note=58 velocity=50 time=0.0020833333333333333\n",
      "note_off channel=0 note=72 velocity=10 time=0.09479166666666666\n",
      "note_off channel=0 note=66 velocity=61 time=0.05625\n",
      "note_on channel=0 note=70 velocity=51 time=0.10729166666666666\n",
      "note_on channel=0 note=55 velocity=42 time=0.008333333333333333\n",
      "note_on channel=0 note=67 velocity=41 time=0.0020833333333333333\n",
      "note_off channel=0 note=62 velocity=36 time=0.0010416666666666667\n",
      "note_on channel=0 note=57 velocity=47 time=0.24583333333333332\n",
      "note_on channel=0 note=72 velocity=57 time=0.003125\n",
      "note_off channel=0 note=67 velocity=59 time=0.00625\n",
      "note_off channel=0 note=70 velocity=44 time=0.040625\n",
      "note_off channel=0 note=72 velocity=62 time=0.16770833333333332\n",
      "note_off channel=0 note=57 velocity=54 time=0.01875\n",
      "note_on channel=0 note=58 velocity=48 time=0.020833333333333332\n",
      "note_on channel=0 note=74 velocity=64 time=0.0020833333333333333\n",
      "note_off channel=0 note=55 velocity=11 time=0.0875\n",
      "note_off channel=0 note=74 velocity=58 time=0.15208333333333332\n",
      "note_on channel=0 note=76 velocity=62 time=0.014583333333333334\n",
      "note_on channel=0 note=60 velocity=55 time=0.008333333333333333\n",
      "note_off channel=0 note=58 velocity=38 time=0.03333333333333333\n",
      "note_on channel=0 note=74 velocity=9 time=0.011458333333333333\n",
      "note_off channel=0 note=60 velocity=59 time=0.16666666666666666\n",
      "note_off channel=0 note=74 velocity=24 time=0.014583333333333334\n",
      "note_off channel=0 note=76 velocity=60 time=0.026041666666666668\n",
      "note_on channel=0 note=62 velocity=54 time=0\n",
      "note_on channel=0 note=77 velocity=63 time=0.007291666666666667\n",
      "note_off channel=0 note=62 velocity=59 time=0.24166666666666667\n",
      "note_on channel=0 note=64 velocity=48 time=0.0125\n",
      "note_on channel=0 note=79 velocity=61 time=0.0020833333333333333\n",
      "note_off channel=0 note=77 velocity=44 time=0.042708333333333334\n",
      "note_off channel=0 note=64 velocity=59 time=0.18958333333333333\n",
      "note_on channel=0 note=65 velocity=49 time=0.041666666666666664\n",
      "note_on channel=0 note=80 velocity=58 time=0.003125\n",
      "note_off channel=0 note=79 velocity=35 time=0.08958333333333333\n",
      "note_on channel=0 note=77 velocity=56 time=0.19479166666666667\n",
      "note_off channel=0 note=80 velocity=36 time=0.07291666666666667\n",
      "note_off channel=0 note=65 velocity=33 time=0.016666666666666666\n",
      "note_on channel=0 note=56 velocity=41 time=0.21875\n",
      "note_on channel=0 note=84 velocity=45 time=0.004166666666666667\n",
      "note_on channel=0 note=82 velocity=52 time=0.2708333333333333\n",
      "note_off channel=0 note=77 velocity=15 time=0.030208333333333334\n",
      "note_off channel=0 note=56 velocity=37 time=0.14375\n",
      "note_on channel=0 note=80 velocity=61 time=0.0875\n",
      "note_on channel=0 note=53 velocity=47 time=0.021875\n",
      "note_off channel=0 note=84 velocity=16 time=0.0625\n",
      "note_off channel=0 note=82 velocity=35 time=0.026041666666666668\n",
      "note_on channel=0 note=79 velocity=62 time=0.17083333333333334\n",
      "note_off channel=0 note=80 velocity=51 time=0.052083333333333336\n",
      "note_off channel=0 note=79 velocity=62 time=0.19895833333333332\n",
      "note_off channel=0 note=53 velocity=38 time=0.008333333333333333\n",
      "note_on channel=0 note=56 velocity=57 time=0.019791666666666666\n",
      "note_on channel=0 note=77 velocity=61 time=0.017708333333333333\n",
      "note_off channel=0 note=77 velocity=59 time=0.25416666666666665\n",
      "note_on channel=0 note=75 velocity=57 time=0.013541666666666667\n",
      "note_off channel=0 note=56 velocity=52 time=0.18125\n",
      "note_on channel=0 note=58 velocity=44 time=0.11145833333333333\n",
      "note_on channel=0 note=74 velocity=54 time=0.004166666666666667\n",
      "note_off channel=0 note=75 velocity=32 time=0.071875\n",
      "note_off channel=0 note=74 velocity=51 time=0.20729166666666665\n",
      "note_on channel=0 note=70 velocity=47 time=0.013541666666666667\n",
      "note_off channel=0 note=58 velocity=57 time=0.07395833333333333\n",
      "note_on channel=0 note=62 velocity=36 time=0.18020833333333333\n",
      "note_on channel=0 note=77 velocity=44 time=0.007291666666666667\n",
      "note_off channel=0 note=70 velocity=49 time=0.04479166666666667\n",
      "note_on channel=0 note=75 velocity=52 time=0.21041666666666667\n",
      "note_off channel=0 note=77 velocity=36 time=0.036458333333333336\n",
      "note_off channel=0 note=62 velocity=43 time=0.109375\n",
      "note_on channel=0 note=58 velocity=35 time=0.13125\n",
      "note_on channel=0 note=74 velocity=49 time=0.0020833333333333333\n",
      "note_off channel=0 note=75 velocity=30 time=0.07916666666666666\n",
      "note_off channel=0 note=74 velocity=60 time=0.121875\n",
      "note_on channel=0 note=72 velocity=49 time=0.06041666666666667\n",
      "note_off channel=0 note=58 velocity=46 time=0.10208333333333333\n",
      "note_off channel=0 note=72 velocity=59 time=0.14479166666666665\n",
      "note_on channel=0 note=70 velocity=47 time=0.011458333333333333\n",
      "note_on channel=0 note=62 velocity=32 time=0.020833333333333332\n",
      "note_off channel=0 note=70 velocity=57 time=0.203125\n",
      "note_on channel=0 note=68 velocity=46 time=0.041666666666666664\n",
      "note_off channel=0 note=62 velocity=51 time=0.07083333333333333\n",
      "note_off channel=0 note=68 velocity=58 time=0.11666666666666667\n",
      "note_on channel=0 note=67 velocity=37 time=0.09583333333333333\n",
      "note_on channel=0 note=63 velocity=25 time=0.0020833333333333333\n",
      "note_on channel=0 note=60 velocity=36 time=0.290625\n",
      "note_off channel=0 note=67 velocity=60 time=0.275\n",
      "note_on channel=0 note=48 velocity=46 time=0.0125\n",
      "note_on channel=0 note=68 velocity=46 time=0.025\n",
      "note_off channel=0 note=63 velocity=12 time=0.1125\n",
      "note_on channel=0 note=67 velocity=51 time=0.12604166666666666\n",
      "note_off channel=0 note=60 velocity=35 time=0.015625\n",
      "note_on channel=0 note=47 velocity=51 time=0.26666666666666666\n",
      "note_on channel=0 note=65 velocity=52 time=0.005208333333333333\n",
      "note_off channel=0 note=67 velocity=50 time=0.016666666666666666\n",
      "note_off channel=0 note=68 velocity=37 time=0.030208333333333334\n",
      "note_off channel=0 note=48 velocity=37 time=0.035416666666666666\n",
      "note_on channel=0 note=63 velocity=57 time=0.178125\n",
      "note_off channel=0 note=65 velocity=49 time=0.08020833333333333\n",
      "note_on channel=0 note=48 velocity=55 time=0.18125\n",
      "note_off channel=0 note=63 velocity=57 time=0.020833333333333332\n",
      "note_on channel=0 note=62 velocity=57 time=0\n",
      "note_off channel=0 note=47 velocity=57 time=0.06354166666666666\n",
      "note_off channel=0 note=62 velocity=60 time=0.15729166666666666\n",
      "note_on channel=0 note=60 velocity=50 time=0.03333333333333333\n",
      "note_off channel=0 note=60 velocity=57 time=0.27291666666666664\n",
      "note_on channel=0 note=50 velocity=42 time=0.016666666666666666\n",
      "note_on channel=0 note=59 velocity=50 time=0.0020833333333333333\n",
      "note_off channel=0 note=48 velocity=56 time=0.053125\n",
      "note_on channel=0 note=65 velocity=43 time=0.24166666666666667\n",
      "note_off channel=0 note=59 velocity=36 time=0.046875\n",
      "note_on channel=0 note=43 velocity=51 time=0.21770833333333334\n",
      "note_on channel=0 note=63 velocity=49 time=0.0020833333333333333\n",
      "note_off channel=0 note=50 velocity=42 time=0.07395833333333333\n",
      "note_off channel=0 note=65 velocity=28 time=0.020833333333333332\n",
      "note_off channel=0 note=63 velocity=59 time=0.15208333333333332\n",
      "note_on channel=0 note=62 velocity=56 time=0.008333333333333333\n",
      "note_on channel=0 note=48 velocity=56 time=0.2875\n",
      "note_on channel=0 note=63 velocity=57 time=0.003125\n",
      "note_off channel=0 note=62 velocity=53 time=0.05\n",
      "note_off channel=0 note=43 velocity=36 time=0.11041666666666666\n",
      "note_off channel=0 note=63 velocity=62 time=0.071875\n",
      "note_on channel=0 note=68 velocity=61 time=0.026041666666666668\n",
      "note_on channel=0 note=47 velocity=54 time=0.25416666666666665\n",
      "note_off channel=0 note=68 velocity=57 time=0.009375\n",
      "note_on channel=0 note=67 velocity=60 time=0.00625\n",
      "note_off channel=0 note=48 velocity=53 time=0.04375\n",
      "note_off channel=0 note=67 velocity=63 time=0.19270833333333334\n",
      "note_on channel=0 note=45 velocity=54 time=0.01875\n",
      "note_on channel=0 note=65 velocity=61 time=0.00625\n",
      "note_off channel=0 note=47 velocity=56 time=0.026041666666666668\n",
      "note_off channel=0 note=65 velocity=56 time=0.2604166666666667\n",
      "note_on channel=0 note=74 velocity=58 time=0.008333333333333333\n",
      "note_on channel=0 note=47 velocity=53 time=0.0010416666666666667\n",
      "note_off channel=0 note=45 velocity=55 time=0.02395833333333333\n"
     ]
    },
    {
     "name": "stdout",
     "output_type": "stream",
     "text": [
      "note_on channel=0 note=72 velocity=56 time=0.2520833333333333\n",
      "note_off channel=0 note=74 velocity=61 time=0.016666666666666666\n",
      "note_on channel=0 note=74 velocity=55 time=0.2625\n",
      "note_on channel=0 note=43 velocity=42 time=0.010416666666666666\n",
      "note_off channel=0 note=47 velocity=59 time=0.010416666666666666\n",
      "note_off channel=0 note=72 velocity=50 time=0.05416666666666667\n",
      "note_on channel=0 note=79 velocity=63 time=0.20416666666666666\n",
      "note_off channel=0 note=74 velocity=53 time=0.020833333333333332\n",
      "note_off channel=0 note=43 velocity=46 time=0.28854166666666664\n",
      "note_on channel=0 note=48 velocity=44 time=0\n",
      "note_on channel=0 note=75 velocity=62 time=0.005208333333333333\n",
      "note_off channel=0 note=79 velocity=41 time=0.23541666666666666\n",
      "note_on channel=0 note=71 velocity=52 time=0.06041666666666667\n",
      "note_off channel=0 note=71 velocity=53 time=0.21770833333333334\n",
      "note_on channel=0 note=72 velocity=53 time=0.028125\n",
      "note_on channel=0 note=44 velocity=43 time=0.0125\n",
      "note_off channel=0 note=48 velocity=56 time=0.020833333333333332\n",
      "note_on channel=0 note=77 velocity=61 time=0.22395833333333334\n",
      "note_off channel=0 note=75 velocity=0 time=0.005208333333333333\n",
      "note_off channel=0 note=72 velocity=56 time=0.103125\n",
      "note_on channel=0 note=79 velocity=63 time=0.2125\n",
      "note_on channel=0 note=39 velocity=37 time=0.016666666666666666\n",
      "note_off channel=0 note=44 velocity=36 time=0.01875\n",
      "note_off channel=0 note=77 velocity=56 time=0.020833333333333332\n",
      "note_on channel=0 note=71 velocity=53 time=0.24479166666666666\n",
      "note_off channel=0 note=39 velocity=53 time=0.15729166666666666\n",
      "note_on channel=0 note=72 velocity=63 time=0.11875\n",
      "note_off channel=0 note=71 velocity=54 time=0.058333333333333334\n",
      "note_off channel=0 note=79 velocity=36 time=0.09895833333333333\n",
      "note_on channel=0 note=56 velocity=42 time=0.109375\n",
      "note_on channel=0 note=77 velocity=64 time=0.25729166666666664\n",
      "note_off channel=0 note=56 velocity=56 time=0.016666666666666666\n",
      "note_on channel=0 note=50 velocity=37 time=0.004166666666666667\n",
      "note_on channel=0 note=71 velocity=56 time=0.253125\n",
      "note_off channel=0 note=72 velocity=53 time=0.005208333333333333\n",
      "note_off channel=0 note=50 velocity=42 time=0.22291666666666665\n",
      "note_on channel=0 note=75 velocity=63 time=0.03854166666666667\n",
      "note_on channel=0 note=55 velocity=42 time=0.017708333333333333\n",
      "note_off channel=0 note=77 velocity=34 time=0.12916666666666665\n",
      "note_off channel=0 note=71 velocity=0 time=0.0625\n",
      "note_on channel=0 note=74 velocity=62 time=0.046875\n",
      "note_off channel=0 note=75 velocity=56 time=0.065625\n",
      "note_on channel=0 note=75 velocity=55 time=0.19583333333333333\n",
      "note_on channel=0 note=72 velocity=46 time=0.030208333333333334\n",
      "note_on channel=0 note=48 velocity=32 time=0.009375\n",
      "note_off channel=0 note=55 velocity=47 time=0.026041666666666668\n",
      "note_off channel=0 note=74 velocity=34 time=0.028125\n",
      "note_off channel=0 note=72 velocity=56 time=0.128125\n",
      "note_on channel=0 note=67 velocity=44 time=0.07708333333333334\n",
      "note_on channel=0 note=68 velocity=48 time=0.2635416666666667\n",
      "note_off channel=0 note=67 velocity=35 time=0.052083333333333336\n",
      "note_off channel=0 note=48 velocity=40 time=0.042708333333333334\n",
      "note_off channel=0 note=75 velocity=35 time=0.07291666666666667\n",
      "note_on channel=0 note=53 velocity=28 time=0.09583333333333333\n",
      "note_off channel=0 note=53 velocity=44 time=0.23020833333333332\n",
      "note_on channel=0 note=73 velocity=47 time=0.04375\n",
      "note_on channel=0 note=46 velocity=31 time=0.017708333333333333\n",
      "note_on channel=0 note=67 velocity=41 time=0.27291666666666664\n",
      "note_off channel=0 note=73 velocity=35 time=0.08854166666666667\n",
      "note_off channel=0 note=68 velocity=56 time=0.13333333333333333\n",
      "note_off channel=0 note=46 velocity=42 time=0.008333333333333333\n",
      "note_on channel=0 note=51 velocity=40 time=0.020833333333333332\n",
      "note_on channel=0 note=72 velocity=42 time=0.013541666666666667\n",
      "note_on channel=0 note=70 velocity=49 time=0.23229166666666667\n",
      "note_off channel=0 note=72 velocity=40 time=0.027083333333333334\n",
      "note_off channel=0 note=67 velocity=38 time=0.24895833333333334\n",
      "note_on channel=0 note=72 velocity=49 time=0.007291666666666667\n",
      "note_on channel=0 note=44 velocity=31 time=0.019791666666666666\n",
      "note_off channel=0 note=51 velocity=40 time=0.06354166666666666\n",
      "note_off channel=0 note=70 velocity=37 time=0.00625\n",
      "note_on channel=0 note=64 velocity=47 time=0.17083333333333334\n",
      "note_on channel=0 note=65 velocity=45 time=0.271875\n",
      "note_off channel=0 note=64 velocity=34 time=0.020833333333333332\n",
      "note_off channel=0 note=44 velocity=40 time=0.10520833333333333\n",
      "note_off channel=0 note=72 velocity=36 time=0.02395833333333333\n",
      "note_on channel=0 note=49 velocity=36 time=0.09791666666666667\n",
      "note_off channel=0 note=49 velocity=44 time=0.23229166666666667\n",
      "note_on channel=0 note=70 velocity=44 time=0.042708333333333334\n",
      "note_on channel=0 note=43 velocity=30 time=0.021875\n",
      "note_on channel=0 note=64 velocity=43 time=0.24583333333333332\n",
      "note_off channel=0 note=65 velocity=38 time=0.06458333333333333\n",
      "note_off channel=0 note=43 velocity=39 time=0.02395833333333333\n",
      "note_on channel=0 note=68 velocity=44 time=0.17708333333333334\n",
      "note_on channel=0 note=48 velocity=22 time=0.02395833333333333\n",
      "note_off channel=0 note=70 velocity=23 time=0.16666666666666666\n",
      "note_off channel=0 note=68 velocity=53 time=0.04791666666666666\n",
      "note_on channel=0 note=67 velocity=49 time=0.007291666666666667\n",
      "note_off channel=0 note=48 velocity=42 time=0.07916666666666666\n",
      "note_off channel=0 note=64 velocity=38 time=0.035416666666666666\n",
      "note_off channel=0 note=67 velocity=54 time=0.140625\n",
      "note_on channel=0 note=41 velocity=27 time=0.029166666666666667\n",
      "note_on channel=0 note=65 velocity=36 time=0.00625\n",
      "note_on channel=0 note=68 velocity=45 time=0.00625\n",
      "note_on channel=0 note=48 velocity=31 time=0.271875\n",
      "note_off channel=0 note=68 velocity=36 time=0.20729166666666665\n",
      "note_off channel=0 note=41 velocity=40 time=0.03229166666666666\n",
      "note_on channel=0 note=60 velocity=51 time=0.0125\n",
      "note_off channel=0 note=48 velocity=46 time=0.020833333333333332\n",
      "note_on channel=0 note=53 velocity=46 time=0\n",
      "note_off channel=0 note=65 velocity=52 time=0.25416666666666665\n",
      "note_on channel=0 note=68 velocity=50 time=0.016666666666666666\n",
      "note_off channel=0 note=68 velocity=56 time=0.259375\n",
      "note_on channel=0 note=59 velocity=56 time=0.003125\n",
      "note_on channel=0 note=62 velocity=51 time=0.03125\n",
      "note_off channel=0 note=60 velocity=36 time=0.13020833333333334\n",
      "note_off channel=0 note=53 velocity=60 time=0.09479166666666666\n",
      "note_on channel=0 note=51 velocity=51 time=0.01875\n",
      "note_off channel=0 note=51 velocity=60 time=0.22604166666666667\n",
      "note_on channel=0 note=60 velocity=60 time=0.014583333333333334\n",
      "note_off channel=0 note=59 velocity=54 time=0.007291666666666667\n",
      "note_off channel=0 note=62 velocity=55 time=0.0020833333333333333\n",
      "note_on channel=0 note=63 velocity=56 time=0.010416666666666666\n",
      "note_on channel=0 note=50 velocity=46 time=0.0125\n",
      "note_on channel=0 note=48 velocity=52 time=0.2375\n",
      "note_off channel=0 note=50 velocity=35 time=0.0375\n",
      "note_on channel=0 note=62 velocity=59 time=0.21354166666666666\n",
      "note_off channel=0 note=63 velocity=56 time=0\n",
      "note_off channel=0 note=48 velocity=58 time=0.014583333333333334\n",
      "note_on channel=0 note=65 velocity=48 time=0.00625\n",
      "note_on channel=0 note=47 velocity=40 time=0.020833333333333332\n",
      "note_off channel=0 note=60 velocity=37 time=0.053125\n",
      "note_off channel=0 note=47 velocity=50 time=0.17916666666666667\n",
      "note_on channel=0 note=43 velocity=41 time=0.022916666666666665\n",
      "note_on channel=0 note=55 velocity=57 time=0.23124999999999998\n",
      "note_off channel=0 note=62 velocity=55 time=0.004166666666666667\n",
      "note_on channel=0 note=63 velocity=51 time=0.011458333333333333\n",
      "note_on channel=0 note=48 velocity=44 time=0.009375\n",
      "note_off channel=0 note=43 velocity=39 time=0.013541666666666667\n",
      "note_off channel=0 note=65 velocity=52 time=0.041666666666666664\n",
      "note_on channel=0 note=46 velocity=46 time=0.20416666666666666\n",
      "note_off channel=0 note=48 velocity=37 time=0.022916666666666665\n",
      "note_on channel=0 note=44 velocity=48 time=0.21875\n",
      "note_on channel=0 note=60 velocity=52 time=0.00625\n",
      "note_off channel=0 note=55 velocity=45 time=0.03854166666666667\n",
      "note_off channel=0 note=46 velocity=36 time=0.010416666666666666\n",
      "note_on channel=0 note=48 velocity=46 time=0.2125\n",
      "note_off channel=0 note=44 velocity=35 time=0.03333333333333333\n"
     ]
    },
    {
     "name": "stdout",
     "output_type": "stream",
     "text": [
      "note_off channel=0 note=63 velocity=55 time=0.21666666666666667\n",
      "note_off channel=0 note=60 velocity=58 time=0.009375\n",
      "note_on channel=0 note=59 velocity=50 time=0.010416666666666666\n",
      "note_off channel=0 note=48 velocity=52 time=0.004166666666666667\n",
      "note_on channel=0 note=38 velocity=42 time=0\n",
      "note_on channel=0 note=65 velocity=46 time=0.01875\n",
      "note_off channel=0 note=59 velocity=60 time=0.253125\n",
      "note_on channel=0 note=57 velocity=49 time=0.007291666666666667\n",
      "note_off channel=0 note=57 velocity=60 time=0.240625\n",
      "note_on channel=0 note=55 velocity=49 time=0.027083333333333334\n",
      "note_on channel=0 note=39 velocity=37 time=0.009375\n",
      "note_off channel=0 note=38 velocity=42 time=0.03229166666666666\n",
      "note_off channel=0 note=55 velocity=52 time=0.203125\n",
      "note_on channel=0 note=59 velocity=55 time=0\n",
      "note_off channel=0 note=59 velocity=59 time=0.2375\n",
      "note_on channel=0 note=60 velocity=47 time=0.053125\n",
      "note_on channel=0 note=63 velocity=38 time=0.003125\n",
      "note_off channel=0 note=65 velocity=36 time=0.03229166666666666\n",
      "note_off channel=0 note=39 velocity=44 time=0.23020833333333332\n",
      "note_on channel=0 note=36 velocity=34 time=0.008333333333333333\n",
      "note_on channel=0 note=68 velocity=41 time=0.29583333333333334\n",
      "note_on channel=0 note=41 velocity=40 time=0.014583333333333334\n",
      "note_off channel=0 note=63 velocity=28 time=0.06666666666666667\n",
      "note_off channel=0 note=60 velocity=58 time=0.025\n",
      "note_on channel=0 note=60 velocity=48 time=0.19270833333333334\n",
      "note_off channel=0 note=36 velocity=27 time=0.13125\n",
      "note_off channel=0 note=68 velocity=53 time=0.075\n",
      "note_on channel=0 note=62 velocity=53 time=0.04791666666666666\n",
      "note_on channel=0 note=46 velocity=38 time=0.0020833333333333333\n",
      "note_off channel=0 note=41 velocity=42 time=0.057291666666666664\n",
      "note_off channel=0 note=60 velocity=27 time=0.16145833333333334\n",
      "note_on channel=0 note=68 velocity=54 time=0.034375\n",
      "note_on channel=0 note=67 velocity=54 time=0.271875\n",
      "note_off channel=0 note=68 velocity=48 time=0.0020833333333333333\n",
      "note_on channel=0 note=47 velocity=46 time=0.020833333333333332\n",
      "note_off channel=0 note=62 velocity=34 time=0.03125\n",
      "note_off channel=0 note=46 velocity=49 time=0.0020833333333333333\n",
      "note_on channel=0 note=62 velocity=56 time=0.21041666666666667\n",
      "note_off channel=0 note=62 velocity=61 time=0.27708333333333335\n",
      "note_on channel=0 note=48 velocity=56 time=0.0125\n",
      "note_off channel=0 note=67 velocity=55 time=0.0020833333333333333\n",
      "note_on channel=0 note=63 velocity=58 time=0.007291666666666667\n",
      "note_off channel=0 note=47 velocity=35 time=0.08854166666666667\n",
      "note_on channel=0 note=67 velocity=62 time=0.18020833333333333\n",
      "note_off channel=0 note=63 velocity=36 time=0.21145833333333333\n",
      "note_on channel=0 note=44 velocity=59 time=0.030208333333333334\n",
      "note_off channel=0 note=48 velocity=59 time=0.008333333333333333\n",
      "note_on channel=0 note=72 velocity=61 time=0\n",
      "note_off channel=0 note=67 velocity=53 time=0.07916666666666666\n",
      "note_on channel=0 note=65 velocity=58 time=0.190625\n",
      "note_on channel=0 note=46 velocity=62 time=0.24375\n",
      "note_on channel=0 note=66 velocity=59 time=0.008333333333333333\n",
      "note_off channel=0 note=65 velocity=51 time=0.022916666666666665\n",
      "note_off channel=0 note=44 velocity=57 time=0.011458333333333333\n",
      "note_off channel=0 note=72 velocity=39 time=0.08645833333333333\n",
      "note_on channel=0 note=70 velocity=64 time=0.13020833333333334\n",
      "note_on channel=0 note=48 velocity=57 time=0.28125\n",
      "note_on channel=0 note=64 velocity=54 time=0.0020833333333333333\n",
      "note_off channel=0 note=70 velocity=54 time=0.0020833333333333333\n",
      "note_off channel=0 note=46 velocity=57 time=0.0625\n",
      "note_off channel=0 note=66 velocity=28 time=0.0625\n",
      "note_on channel=0 note=70 velocity=57 time=0.14479166666666665\n",
      "note_off channel=0 note=64 velocity=37 time=0.10833333333333334\n",
      "note_on channel=0 note=41 velocity=52 time=0.140625\n",
      "note_on channel=0 note=68 velocity=55 time=0.007291666666666667\n",
      "note_off channel=0 note=48 velocity=56 time=0.021875\n",
      "note_on channel=0 note=65 velocity=56 time=0.24895833333333334\n",
      "note_off channel=0 note=70 velocity=24 time=0.013541666666666667\n",
      "note_off channel=0 note=68 velocity=31 time=0.27708333333333335\n",
      "note_on channel=0 note=46 velocity=55 time=0.027083333333333334\n",
      "note_on channel=0 note=61 velocity=57 time=0.016666666666666666\n",
      "note_off channel=0 note=65 velocity=52 time=0.022916666666666665\n",
      "note_off channel=0 note=41 velocity=33 time=0.17083333333333334\n",
      "note_on channel=0 note=67 velocity=56 time=0.07708333333333334\n",
      "note_on channel=0 note=44 velocity=61 time=0.23645833333333333\n",
      "note_on channel=0 note=68 velocity=58 time=0.016666666666666666\n",
      "note_off channel=0 note=46 velocity=57 time=0.007291666666666667\n",
      "note_off channel=0 note=67 velocity=23 time=0.19583333333333333\n",
      "note_off channel=0 note=44 velocity=61 time=0.02395833333333333\n",
      "note_on channel=0 note=43 velocity=59 time=0.010416666666666666\n",
      "note_on channel=0 note=70 velocity=63 time=0.0020833333333333333\n",
      "note_off channel=0 note=61 velocity=34 time=0.07708333333333334\n",
      "note_off channel=0 note=68 velocity=47 time=0.015625\n",
      "note_on channel=0 note=64 velocity=59 time=0.17395833333333333\n",
      "note_off channel=0 note=43 velocity=61 time=0.004166666666666667\n",
      "note_on channel=0 note=44 velocity=63 time=0\n",
      "note_off channel=0 note=64 velocity=59 time=0.23229166666666667\n",
      "note_on channel=0 note=60 velocity=62 time=0.027083333333333334\n",
      "note_off channel=0 note=70 velocity=59 time=0.24166666666666667\n",
      "note_off channel=0 note=44 velocity=62 time=0.008333333333333333\n",
      "note_off channel=0 note=60 velocity=53 time=0.008333333333333333\n",
      "note_on channel=0 note=65 velocity=59 time=0.0010416666666666667\n",
      "note_on channel=0 note=56 velocity=50 time=0.008333333333333333\n",
      "note_on channel=0 note=68 velocity=66 time=0.28229166666666666\n",
      "note_off channel=0 note=56 velocity=59 time=0.013541666666666667\n",
      "note_on channel=0 note=53 velocity=43 time=0.015625\n",
      "note_off channel=0 note=65 velocity=58 time=0.005208333333333333\n",
      "note_on channel=0 note=73 velocity=72 time=0.259375\n",
      "note_on channel=0 note=58 velocity=54 time=0.014583333333333334\n",
      "note_off channel=0 note=68 velocity=52 time=0.03125\n",
      "note_off channel=0 note=53 velocity=38 time=0.03333333333333333\n",
      "note_on channel=0 note=67 velocity=58 time=0.203125\n",
      "note_off channel=0 note=73 velocity=48 time=0.20208333333333334\n",
      "note_off channel=0 note=58 velocity=58 time=0.008333333333333333\n",
      "note_on channel=0 note=60 velocity=45 time=0.026041666666666668\n",
      "note_on channel=0 note=68 velocity=59 time=0.015625\n",
      "note_off channel=0 note=67 velocity=52 time=0.19583333333333333\n",
      "note_on channel=0 note=72 velocity=63 time=0.051041666666666666\n",
      "note_off channel=0 note=60 velocity=47 time=0.2677083333333333\n",
      "note_on channel=0 note=66 velocity=48 time=0.03333333333333333\n",
      "note_on channel=0 note=50 velocity=35 time=0.008333333333333333\n",
      "note_off channel=0 note=68 velocity=17 time=0.019791666666666666\n",
      "note_off channel=0 note=72 velocity=54 time=0.040625\n",
      "note_on channel=0 note=72 velocity=62 time=0.20104166666666667\n",
      "note_off channel=0 note=50 velocity=47 time=0.26666666666666666\n",
      "note_off channel=0 note=66 velocity=42 time=0.004166666666666667\n",
      "note_on channel=0 note=70 velocity=58 time=0.014583333333333334\n",
      "note_on channel=0 note=55 velocity=44 time=0.011458333333333333\n",
      "note_off channel=0 note=72 velocity=49 time=0.13958333333333334\n",
      "note_on channel=0 note=67 velocity=55 time=0.12708333333333333\n",
      "note_on channel=0 note=63 velocity=55 time=0.25\n",
      "note_on channel=0 note=48 velocity=41 time=0.030208333333333334\n",
      "note_off channel=0 note=70 velocity=24 time=0.09583333333333333\n",
      "note_on channel=0 note=69 velocity=56 time=0.14166666666666666\n",
      "note_off channel=0 note=55 velocity=31 time=0.17916666666666667\n",
      "note_on channel=0 note=46 velocity=49 time=0.07708333333333334\n",
      "note_on channel=0 note=70 velocity=60 time=0.0020833333333333333\n",
      "note_off channel=0 note=67 velocity=8 time=0.015625\n",
      "note_off channel=0 note=48 velocity=52 time=0.009375\n",
      "note_off channel=0 note=69 velocity=38 time=0.01875\n",
      "note_off channel=0 note=46 velocity=54 time=0.196875\n",
      "note_on channel=0 note=72 velocity=61 time=0.017708333333333333\n",
      "note_on channel=0 note=45 velocity=47 time=0.003125\n",
      "note_off channel=0 note=70 velocity=57 time=0.005208333333333333\n",
      "note_off channel=0 note=45 velocity=54 time=0.24375\n",
      "note_on channel=0 note=66 velocity=61 time=0.0125\n",
      "note_on channel=0 note=46 velocity=46 time=0.011458333333333333\n",
      "note_off channel=0 note=72 velocity=47 time=0.015625\n",
      "note_off channel=0 note=63 velocity=51 time=0.030208333333333334\n"
     ]
    },
    {
     "name": "stdout",
     "output_type": "stream",
     "text": [
      "note_on channel=0 note=62 velocity=61 time=0.196875\n",
      "note_off channel=0 note=66 velocity=64 time=0.265625\n",
      "note_on channel=0 note=67 velocity=64 time=0.009375\n",
      "note_on channel=0 note=51 velocity=49 time=0.021875\n",
      "note_off channel=0 note=46 velocity=37 time=0.05520833333333333\n",
      "note_off channel=0 note=62 velocity=60 time=0.13958333333333334\n",
      "note_on channel=0 note=60 velocity=57 time=0.036458333333333336\n",
      "note_on channel=0 note=58 velocity=62 time=0.315625\n",
      "note_on channel=0 note=48 velocity=44 time=0.008333333333333333\n",
      "note_off channel=0 note=67 velocity=55 time=0.051041666666666666\n",
      "note_off channel=0 note=51 velocity=54 time=0.05\n",
      "note_on channel=0 note=67 velocity=63 time=0.1625\n",
      "note_off channel=0 note=58 velocity=62 time=0.15729166666666666\n",
      "note_off channel=0 note=60 velocity=35 time=0.11145833333333333\n",
      "note_on channel=0 note=57 velocity=68 time=0.020833333333333332\n",
      "note_on channel=0 note=50 velocity=49 time=0.017708333333333333\n",
      "note_off channel=0 note=48 velocity=50 time=0.04479166666666667\n",
      "note_on channel=0 note=66 velocity=68 time=0.21458333333333332\n",
      "note_off channel=0 note=67 velocity=56 time=0.05\n",
      "note_off channel=0 note=57 velocity=51 time=0.15729166666666666\n",
      "note_off channel=0 note=66 velocity=59 time=0.153125\n",
      "note_off channel=0 note=50 velocity=47 time=0.00625\n",
      "note_on channel=0 note=43 velocity=46 time=0.019791666666666666\n",
      "note_on channel=0 note=67 velocity=69 time=0.0020833333333333333\n",
      "note_on channel=0 note=55 velocity=57 time=0.009375\n",
      "note_off channel=0 note=55 velocity=46 time=0.178125\n",
      "note_off channel=0 note=67 velocity=62 time=0.175\n",
      "note_off channel=0 note=43 velocity=55 time=0.225\n",
      "note_on channel=0 note=79 velocity=69 time=0.036458333333333336\n",
      "note_off channel=0 note=79 velocity=54 time=0.5895833333333333\n",
      "note_on channel=0 note=67 velocity=66 time=0.008333333333333333\n",
      "note_on channel=0 note=75 velocity=62 time=0.007291666666666667\n",
      "note_on channel=0 note=77 velocity=65 time=0.5645833333333333\n",
      "note_off channel=0 note=75 velocity=58 time=0.046875\n",
      "note_on channel=0 note=79 velocity=61 time=0.5354166666666667\n",
      "note_on channel=0 note=63 velocity=52 time=0.00625\n",
      "note_off channel=0 note=77 velocity=48 time=0.020833333333333332\n",
      "note_off channel=0 note=67 velocity=54 time=0.05416666666666667\n",
      "note_off channel=0 note=79 velocity=62 time=0.5041666666666667\n",
      "note_on channel=0 note=72 velocity=55 time=0.005208333333333333\n",
      "note_on channel=0 note=77 velocity=63 time=0.5104166666666666\n",
      "note_on channel=0 note=65 velocity=56 time=0.016666666666666666\n",
      "note_off channel=0 note=72 velocity=58 time=0.025\n",
      "note_off channel=0 note=63 velocity=55 time=0.09895833333333333\n",
      "note_on channel=0 note=75 velocity=59 time=0.44375\n",
      "note_off channel=0 note=77 velocity=51 time=0.053125\n",
      "note_off channel=0 note=75 velocity=59 time=0.17395833333333333\n",
      "note_on channel=0 note=74 velocity=63 time=0.00625\n",
      "note_off channel=0 note=74 velocity=58 time=0.21875\n",
      "note_on channel=0 note=67 velocity=62 time=0.042708333333333334\n",
      "note_on channel=0 note=75 velocity=59 time=0.005208333333333333\n",
      "note_off channel=0 note=65 velocity=52 time=0.07395833333333333\n",
      "note_on channel=0 note=74 velocity=62 time=0.18333333333333332\n",
      "note_off channel=0 note=75 velocity=35 time=0.075\n",
      "note_on channel=0 note=72 velocity=55 time=0.19583333333333333\n",
      "note_on channel=0 note=55 velocity=47 time=0.004166666666666667\n",
      "note_off channel=0 note=74 velocity=35 time=0.058333333333333334\n",
      "note_off channel=0 note=67 velocity=38 time=0.184375\n",
      "note_on channel=0 note=71 velocity=59 time=0.010416666666666666\n",
      "note_off channel=0 note=72 velocity=58 time=0.03333333333333333\n",
      "note_off channel=0 note=71 velocity=62 time=0.19270833333333334\n",
      "note_off channel=0 note=55 velocity=60 time=0.003125\n",
      "note_on channel=0 note=72 velocity=57 time=0.017708333333333333\n",
      "note_on channel=0 note=60 velocity=60 time=0.003125\n",
      "note_on channel=0 note=56 velocity=53 time=0.007291666666666667\n",
      "note_on channel=0 note=75 velocity=60 time=0.25729166666666664\n",
      "note_off channel=0 note=56 velocity=59 time=0.14895833333333333\n",
      "note_off channel=0 note=72 velocity=33 time=0.007291666666666667\n",
      "note_on channel=0 note=55 velocity=62 time=0.09270833333333334\n",
      "note_on channel=0 note=77 velocity=65 time=0.008333333333333333\n",
      "note_off channel=0 note=75 velocity=56 time=0.026041666666666668\n",
      "note_on channel=0 note=79 velocity=65 time=0.21770833333333334\n",
      "note_off channel=0 note=55 velocity=55 time=0.08541666666666667\n",
      "note_on channel=0 note=65 velocity=68 time=0.1875\n",
      "note_off channel=0 note=60 velocity=60 time=0.004166666666666667\n",
      "note_on channel=0 note=80 velocity=57 time=0.014583333333333334\n",
      "note_on channel=0 note=53 velocity=54 time=0.0125\n",
      "note_off channel=0 note=77 velocity=15 time=0.01875\n",
      "note_off channel=0 note=79 velocity=54 time=0.03333333333333333\n",
      "note_on channel=0 note=72 velocity=60 time=0.18020833333333333\n",
      "note_off channel=0 note=80 velocity=58 time=0.005208333333333333\n",
      "note_off channel=0 note=72 velocity=59 time=0.22916666666666666\n",
      "note_off channel=0 note=53 velocity=33 time=0.008333333333333333\n",
      "note_on channel=0 note=71 velocity=55 time=0.015625\n",
      "note_on channel=0 note=62 velocity=56 time=0.004166666666666667\n",
      "note_off channel=0 note=71 velocity=58 time=0.253125\n",
      "note_on channel=0 note=69 velocity=63 time=0.004166666666666667\n",
      "note_off channel=0 note=65 velocity=60 time=0.021875\n",
      "note_off channel=0 note=62 velocity=63 time=0.08645833333333333\n",
      "note_off channel=0 note=69 velocity=53 time=0.121875\n",
      "note_on channel=0 note=71 velocity=61 time=0.025\n",
      "note_on channel=0 note=63 velocity=58 time=0.004166666666666667\n",
      "note_on channel=0 note=55 velocity=46 time=0.026041666666666668\n",
      "note_on channel=0 note=79 velocity=64 time=0.21354166666666666\n",
      "note_off channel=0 note=63 velocity=61 time=0.13333333333333333\n",
      "note_off channel=0 note=55 velocity=56 time=0.009375\n",
      "note_on channel=0 note=77 velocity=62 time=0.09791666666666667\n",
      "note_on channel=0 note=57 velocity=53 time=0.0125\n",
      "note_on channel=0 note=62 velocity=52 time=0.004166666666666667\n",
      "note_off channel=0 note=71 velocity=33 time=0.007291666666666667\n",
      "note_off channel=0 note=79 velocity=50 time=0.010416666666666666\n",
      "note_off channel=0 note=57 velocity=55 time=0.178125\n",
      "note_on channel=0 note=79 velocity=65 time=0.00625\n",
      "note_on channel=0 note=59 velocity=60 time=0.0125\n",
      "note_off channel=0 note=77 velocity=49 time=0.014583333333333334\n",
      "note_off channel=0 note=59 velocity=59 time=0.0625\n",
      "note_off channel=0 note=62 velocity=59 time=0.16770833333333332\n",
      "note_on channel=0 note=75 velocity=63 time=0.0125\n",
      "note_on channel=0 note=63 velocity=38 time=0.009375\n",
      "note_on channel=0 note=60 velocity=48 time=0.005208333333333333\n",
      "note_off channel=0 note=79 velocity=55 time=0.08125\n",
      "note_off channel=0 note=60 velocity=59 time=0.11041666666666666\n",
      "note_off channel=0 note=63 velocity=54 time=0.004166666666666667\n",
      "note_on channel=0 note=62 velocity=50 time=0.029166666666666667\n",
      "note_off channel=0 note=75 velocity=34 time=0.109375\n",
      "note_on channel=0 note=72 velocity=65 time=0.15416666666666667\n",
      "note_on channel=0 note=63 velocity=44 time=0.013541666666666667\n",
      "note_off channel=0 note=62 velocity=55 time=0.017708333333333333\n",
      "note_off channel=0 note=63 velocity=53 time=0.20520833333333333\n",
      "note_on channel=0 note=65 velocity=51 time=0.02395833333333333\n",
      "note_off channel=0 note=65 velocity=58 time=0.20208333333333334\n",
      "note_on channel=0 note=70 velocity=65 time=0.04375\n",
      "note_on channel=0 note=67 velocity=54 time=0.003125\n",
      "note_off channel=0 note=72 velocity=51 time=0.065625\n",
      "note_off channel=0 note=67 velocity=55 time=0.14375\n",
      "note_on channel=0 note=63 velocity=50 time=0.04791666666666666\n",
      "note_off channel=0 note=63 velocity=61 time=0.1875\n",
      "note_on channel=0 note=72 velocity=69 time=0.04479166666666667\n",
      "note_on channel=0 note=62 velocity=54 time=0.010416666666666666\n",
      "note_off channel=0 note=70 velocity=58 time=0.025\n",
      "note_off channel=0 note=62 velocity=55 time=0.20833333333333334\n",
      "note_on channel=0 note=60 velocity=55 time=0\n",
      "note_off channel=0 note=60 velocity=58 time=0.228125\n",
      "note_on channel=0 note=74 velocity=64 time=0.011458333333333333\n",
      "note_on channel=0 note=58 velocity=49 time=0.019791666666666666\n",
      "note_off channel=0 note=58 velocity=61 time=0.20625\n",
      "note_on channel=0 note=57 velocity=49 time=0.036458333333333336\n",
      "note_off channel=0 note=72 velocity=18 time=0.240625\n",
      "note_off channel=0 note=57 velocity=56 time=0.015625\n",
      "note_on channel=0 note=79 velocity=62 time=0.019791666666666666\n",
      "note_on channel=0 note=58 velocity=41 time=0.009375\n",
      "note_on channel=0 note=67 velocity=51 time=0.0020833333333333333\n",
      "note_off channel=0 note=74 velocity=53 time=0.0020833333333333333\n"
     ]
    },
    {
     "name": "stdout",
     "output_type": "stream",
     "text": [
      "note_off channel=0 note=79 velocity=62 time=0.47812499999999997\n",
      "note_on channel=0 note=76 velocity=64 time=0.004166666666666667\n",
      "note_on channel=0 note=72 velocity=54 time=0.01875\n",
      "note_off channel=0 note=72 velocity=61 time=0.203125\n",
      "note_on channel=0 note=57 velocity=51 time=0.03229166666666666\n",
      "note_off channel=0 note=58 velocity=46 time=0.06979166666666667\n",
      "note_off channel=0 note=67 velocity=37 time=0.13333333333333333\n",
      "note_off channel=0 note=57 velocity=56 time=0.025\n",
      "note_on channel=0 note=78 velocity=64 time=0.0125\n",
      "note_on channel=0 note=62 velocity=50 time=0.017708333333333333\n",
      "note_on channel=0 note=70 velocity=55 time=0.005208333333333333\n",
      "note_off channel=0 note=76 velocity=62 time=0.021875\n",
      "note_on channel=0 note=60 velocity=52 time=0.21145833333333333\n",
      "note_on channel=0 note=69 velocity=63 time=0.017708333333333333\n",
      "note_off channel=0 note=78 velocity=57 time=0.013541666666666667\n",
      "note_off channel=0 note=70 velocity=54 time=0.0020833333333333333\n",
      "note_off channel=0 note=62 velocity=36 time=0.04375\n",
      "note_off channel=0 note=69 velocity=56 time=0.14583333333333334\n",
      "note_on channel=0 note=70 velocity=52 time=0.0375\n",
      "note_on channel=0 note=79 velocity=67 time=0.0020833333333333333\n",
      "note_on channel=0 note=58 velocity=54 time=0.010416666666666666\n",
      "note_off channel=0 note=60 velocity=56 time=0.02395833333333333\n",
      "note_on channel=0 note=55 velocity=56 time=0.221875\n",
      "note_off channel=0 note=70 velocity=62 time=0.06979166666666667\n",
      "note_off channel=0 note=58 velocity=43 time=0.12291666666666666\n",
      "note_on channel=0 note=60 velocity=66 time=0.05\n",
      "note_off channel=0 note=79 velocity=38 time=0.008333333333333333\n",
      "note_on channel=0 note=68 velocity=60 time=0.011458333333333333\n",
      "note_on channel=0 note=72 velocity=55 time=0.005208333333333333\n",
      "note_off channel=0 note=68 velocity=61 time=0.12604166666666666\n",
      "note_off channel=0 note=55 velocity=32 time=0.03333333333333333\n",
      "note_off channel=0 note=72 velocity=57 time=0.08854166666666667\n",
      "note_on channel=0 note=67 velocity=62 time=0\n",
      "note_on channel=0 note=57 velocity=63 time=0.240625\n",
      "note_off channel=0 note=67 velocity=38 time=0.005208333333333333\n",
      "note_on channel=0 note=77 velocity=67 time=0.007291666666666667\n",
      "note_on channel=0 note=72 velocity=56 time=0.007291666666666667\n",
      "note_off channel=0 note=60 velocity=53 time=0.04479166666666667\n",
      "note_on channel=0 note=60 velocity=57 time=0.19791666666666666\n",
      "note_off channel=0 note=72 velocity=59 time=0.24687499999999998\n",
      "note_on channel=0 note=59 velocity=68 time=0\n",
      "note_off channel=0 note=57 velocity=58 time=0.003125\n",
      "note_off channel=0 note=77 velocity=53 time=0.010416666666666666\n",
      "note_on channel=0 note=75 velocity=62 time=0.005208333333333333\n",
      "note_on channel=0 note=67 velocity=55 time=0.013541666666666667\n",
      "note_off channel=0 note=60 velocity=55 time=0.008333333333333333\n",
      "note_on channel=0 note=74 velocity=65 time=0.21354166666666666\n",
      "note_off channel=0 note=75 velocity=58 time=0.004166666666666667\n",
      "note_off channel=0 note=74 velocity=62 time=0.23854166666666665\n",
      "note_off channel=0 note=59 velocity=61 time=0.027083333333333334\n",
      "note_on channel=0 note=60 velocity=64 time=0\n",
      "note_on channel=0 note=75 velocity=67 time=0.005208333333333333\n",
      "note_off channel=0 note=67 velocity=0 time=0.2125\n",
      "note_on channel=0 note=67 velocity=39 time=0.026041666666666668\n",
      "note_off channel=0 note=75 velocity=51 time=0.042708333333333334\n",
      "note_on channel=0 note=69 velocity=56 time=0.22395833333333334\n",
      "note_on channel=0 note=53 velocity=48 time=0.016666666666666666\n",
      "note_off channel=0 note=67 velocity=35 time=0.15416666666666667\n",
      "note_on channel=0 note=75 velocity=66 time=0.09270833333333334\n",
      "note_off channel=0 note=69 velocity=54 time=0.09791666666666667\n",
      "note_on channel=0 note=74 velocity=66 time=0.15416666666666667\n",
      "note_on channel=0 note=58 velocity=61 time=0.004166666666666667\n",
      "note_on channel=0 note=70 velocity=63 time=0.021875\n",
      "note_off channel=0 note=75 velocity=55 time=0.013541666666666667\n",
      "note_off channel=0 note=60 velocity=49 time=0.05\n",
      "note_off channel=0 note=53 velocity=33 time=0.06979166666666667\n",
      "note_off channel=0 note=70 velocity=60 time=0.08541666666666667\n",
      "note_on channel=0 note=72 velocity=69 time=0\n",
      "note_off channel=0 note=72 velocity=60 time=0.175\n",
      "note_on channel=0 note=76 velocity=68 time=0.06875\n",
      "note_on channel=0 note=56 velocity=60 time=0.009375\n",
      "note_on channel=0 note=73 velocity=65 time=0.004166666666666667\n",
      "note_off channel=0 note=74 velocity=49 time=0.035416666666666666\n",
      "note_off channel=0 note=58 velocity=55 time=0.0375\n",
      "note_off channel=0 note=56 velocity=59 time=0.13854166666666667\n",
      "note_on channel=0 note=55 velocity=66 time=0.017708333333333333\n",
      "note_off channel=0 note=73 velocity=49 time=0.234375\n",
      "note_on channel=0 note=77 velocity=70 time=0.035416666666666666\n",
      "note_on channel=0 note=57 velocity=62 time=0.003125\n",
      "note_off channel=0 note=55 velocity=56 time=0.003125\n",
      "note_off channel=0 note=76 velocity=55 time=0.019791666666666666\n",
      "note_on channel=0 note=72 velocity=59 time=0.24375\n",
      "note_off channel=0 note=77 velocity=51 time=0.17708333333333334\n",
      "note_on channel=0 note=70 velocity=64 time=0.06041666666666667\n",
      "note_on channel=0 note=62 velocity=51 time=0.005208333333333333\n",
      "note_off channel=0 note=72 velocity=60 time=0.028125\n",
      "note_off channel=0 note=57 velocity=59 time=0.007291666666666667\n",
      "note_on channel=0 note=68 velocity=66 time=0.20729166666666665\n",
      "note_off channel=0 note=68 velocity=57 time=0.26145833333333335\n",
      "note_on channel=0 note=67 velocity=68 time=0\n",
      "note_on channel=0 note=75 velocity=59 time=0.019791666666666666\n",
      "note_off channel=0 note=62 velocity=59 time=0.24166666666666667\n",
      "note_on channel=0 note=60 velocity=55 time=0.00625\n",
      "note_off channel=0 note=75 velocity=56 time=0.12291666666666666\n",
      "note_on channel=0 note=69 velocity=68 time=0.11562499999999999\n",
      "note_off channel=0 note=67 velocity=36 time=0.0020833333333333333\n",
      "note_on channel=0 note=74 velocity=67 time=0.005208333333333333\n",
      "note_on channel=0 note=65 velocity=60 time=0.003125\n",
      "note_off channel=0 note=70 velocity=53 time=0.042708333333333334\n",
      "note_off channel=0 note=60 velocity=44 time=0.028125\n",
      "note_on channel=0 note=63 velocity=59 time=0.16875\n",
      "note_off channel=0 note=65 velocity=57 time=0.0010416666666666667\n",
      "note_on channel=0 note=72 velocity=65 time=0\n",
      "note_off channel=0 note=74 velocity=53 time=0.0020833333333333333\n",
      "note_off channel=0 note=63 velocity=61 time=0.21770833333333334\n",
      "note_off channel=0 note=69 velocity=61 time=0.015625\n",
      "note_on channel=0 note=70 velocity=71 time=0.008333333333333333\n",
      "note_on channel=0 note=62 velocity=63 time=0.0020833333333333333\n",
      "note_on channel=0 note=74 velocity=65 time=0.011458333333333333\n",
      "note_off channel=0 note=72 velocity=47 time=0.026041666666666668\n",
      "note_on channel=0 note=60 velocity=60 time=0.21562499999999998\n",
      "note_off channel=0 note=62 velocity=57 time=0.011458333333333333\n",
      "note_off channel=0 note=74 velocity=57 time=0.24270833333333333\n",
      "note_off channel=0 note=60 velocity=58 time=0.004166666666666667\n",
      "note_on channel=0 note=63 velocity=68 time=0\n",
      "note_on channel=0 note=61 velocity=62 time=0.003125\n",
      "note_on channel=0 note=67 velocity=61 time=0.019791666666666666\n",
      "note_off channel=0 note=70 velocity=60 time=0.02395833333333333\n",
      "note_on channel=0 note=68 velocity=71 time=0.4791666666666667\n",
      "note_off channel=0 note=63 velocity=62 time=0.017708333333333333\n",
      "note_on channel=0 note=75 velocity=64 time=0.007291666666666667\n",
      "note_off channel=0 note=67 velocity=50 time=0.004166666666666667\n",
      "note_off channel=0 note=61 velocity=59 time=0.18958333333333333\n",
      "note_on channel=0 note=60 velocity=63 time=0.03958333333333333\n",
      "note_on channel=0 note=67 velocity=66 time=0.24375\n",
      "note_on channel=0 note=58 velocity=64 time=0.004166666666666667\n",
      "note_off channel=0 note=60 velocity=55 time=0.00625\n",
      "note_off channel=0 note=75 velocity=37 time=0.10520833333333333\n",
      "note_on channel=0 note=65 velocity=71 time=0.13854166666666667\n",
      "note_on channel=0 note=56 velocity=68 time=0.009375\n",
      "note_off channel=0 note=67 velocity=55 time=0.026041666666666668\n",
      "note_off channel=0 note=58 velocity=61 time=0.0125\n",
      "note_off channel=0 note=68 velocity=35 time=0.121875\n",
      "note_on channel=0 note=67 velocity=72 time=0.08541666666666667\n",
      "note_on channel=0 note=58 velocity=75 time=0.014583333333333334\n",
      "note_off channel=0 note=65 velocity=43 time=0.011458333333333333\n",
      "note_off channel=0 note=56 velocity=59 time=0.028125\n"
     ]
    },
    {
     "name": "stdout",
     "output_type": "stream",
     "text": [
      "note_on channel=0 note=75 velocity=74 time=0.21562499999999998\n",
      "note_off channel=0 note=75 velocity=63 time=0.2125\n",
      "note_on channel=0 note=74 velocity=76 time=0.06458333333333333\n",
      "note_on channel=0 note=59 velocity=72 time=0.005208333333333333\n",
      "note_off channel=0 note=58 velocity=61 time=0.057291666666666664\n",
      "note_off channel=0 note=67 velocity=63 time=0.22604166666666667\n",
      "note_on channel=0 note=65 velocity=78 time=0\n",
      "note_off channel=0 note=65 velocity=58 time=0.2895833333333333\n",
      "note_on channel=0 note=55 velocity=77 time=0\n",
      "note_on channel=0 note=63 velocity=60 time=0.026041666666666668\n",
      "note_off channel=0 note=59 velocity=56 time=0.0010416666666666667\n",
      "note_on channel=0 note=60 velocity=60 time=0.004166666666666667\n",
      "note_on channel=0 note=72 velocity=74 time=0.26979166666666665\n",
      "note_off channel=0 note=74 velocity=0 time=0.10416666666666667\n",
      "note_off channel=0 note=60 velocity=60 time=0.11145833333333333\n",
      "note_off channel=0 note=63 velocity=62 time=0.00625\n",
      "note_on channel=0 note=62 velocity=73 time=0.019791666666666666\n",
      "note_off channel=0 note=72 velocity=63 time=0.21354166666666666\n",
      "note_on channel=0 note=71 velocity=78 time=0.027083333333333334\n",
      "note_off channel=0 note=55 velocity=56 time=0.16666666666666666\n",
      "note_off channel=0 note=62 velocity=62 time=0.003125\n",
      "note_on channel=0 note=72 velocity=77 time=0.09270833333333334\n",
      "note_on channel=0 note=55 velocity=50 time=0.00625\n",
      "note_on channel=0 note=60 velocity=60 time=0.008333333333333333\n",
      "note_on channel=0 note=51 velocity=71 time=0.008333333333333333\n",
      "note_off channel=0 note=71 velocity=54 time=0.022916666666666665\n",
      "note_off channel=0 note=60 velocity=59 time=0.06666666666666667\n",
      "note_on channel=0 note=60 velocity=75 time=0.14270833333333333\n",
      "note_on channel=0 note=59 velocity=69 time=0.25104166666666666\n",
      "note_on channel=0 note=79 velocity=77 time=0.005208333333333333\n",
      "note_on channel=0 note=75 velocity=69 time=0.009375\n",
      "note_off channel=0 note=60 velocity=58 time=0.003125\n",
      "note_on channel=0 note=60 velocity=65 time=0.22604166666666667\n",
      "note_off channel=0 note=51 velocity=60 time=0.06875\n",
      "note_off channel=0 note=72 velocity=12 time=0.07083333333333333\n",
      "note_off channel=0 note=75 velocity=58 time=0.01875\n",
      "note_off channel=0 note=55 velocity=35 time=0.036458333333333336\n",
      "note_off channel=0 note=79 velocity=63 time=0.030208333333333334\n",
      "note_on channel=0 note=74 velocity=76 time=0.017708333333333333\n",
      "note_on channel=0 note=53 velocity=70 time=0.0010416666666666667\n",
      "note_on channel=0 note=68 velocity=66 time=0.007291666666666667\n",
      "note_off channel=0 note=59 velocity=56 time=0.0375\n",
      "note_off channel=0 note=60 velocity=51 time=0.029166666666666667\n",
      "note_on channel=0 note=59 velocity=61 time=0.16041666666666665\n",
      "note_on channel=0 note=60 velocity=66 time=0.24895833333333334\n",
      "note_on channel=0 note=75 velocity=70 time=0.0020833333333333333\n",
      "note_off channel=0 note=59 velocity=55 time=0.021875\n",
      "note_on channel=0 note=77 velocity=73 time=0.225\n",
      "note_off channel=0 note=74 velocity=19 time=0.04583333333333333\n",
      "note_off channel=0 note=75 velocity=59 time=0.017708333333333333\n",
      "note_off channel=0 note=68 velocity=45 time=0.16770833333333332\n",
      "note_on channel=0 note=75 velocity=71 time=0.014583333333333334\n",
      "note_on channel=0 note=55 velocity=67 time=0.004166666666666667\n",
      "note_off channel=0 note=53 velocity=59 time=0.040625\n",
      "note_off channel=0 note=77 velocity=58 time=0.021875\n",
      "note_on channel=0 note=67 velocity=66 time=0.18333333333333332\n",
      "note_off channel=0 note=75 velocity=62 time=0.21666666666666667\n",
      "note_on channel=0 note=74 velocity=64 time=0.03333333333333333\n",
      "note_on channel=0 note=59 velocity=53 time=0.004166666666666667\n",
      "note_on channel=0 note=65 velocity=63 time=0.24791666666666667\n",
      "note_off channel=0 note=67 velocity=55 time=0.005208333333333333\n",
      "note_off channel=0 note=59 velocity=62 time=0.016666666666666666\n",
      "note_off channel=0 note=55 velocity=60 time=0.029166666666666667\n",
      "note_off channel=0 note=60 velocity=52 time=0.0020833333333333333\n",
      "note_off channel=0 note=74 velocity=34 time=0.10833333333333334\n",
      "note_on channel=0 note=48 velocity=68 time=0.06666666666666667\n",
      "note_on channel=0 note=60 velocity=51 time=0.027083333333333334\n",
      "note_on channel=0 note=63 velocity=61 time=0.03229166666666666\n",
      "note_off channel=0 note=65 velocity=0 time=0.225\n",
      "note_on channel=0 note=72 velocity=69 time=0.005208333333333333\n",
      "note_off channel=0 note=63 velocity=56 time=0.04583333333333333\n",
      "note_on channel=0 note=64 velocity=68 time=0.18854166666666666\n",
      "note_on channel=0 note=70 velocity=68 time=0.23645833333333333\n",
      "note_on channel=0 note=53 velocity=62 time=0.2552083333333333\n",
      "note_off channel=0 note=64 velocity=51 time=0.007291666666666667\n",
      "note_on channel=0 note=68 velocity=64 time=0\n",
      "note_off channel=0 note=72 velocity=54 time=0.01875\n",
      "note_off channel=0 note=70 velocity=28 time=0.19791666666666666\n",
      "note_off channel=0 note=60 velocity=43 time=0.042708333333333334\n",
      "note_on channel=0 note=65 velocity=63 time=0.005208333333333333\n",
      "note_off channel=0 note=68 velocity=61 time=0.01875\n",
      "note_off channel=0 note=48 velocity=31 time=0.04895833333333333\n",
      "note_on channel=0 note=62 velocity=60 time=0.16458333333333333\n",
      "note_on channel=0 note=59 velocity=55 time=0.017708333333333333\n",
      "note_on channel=0 note=68 velocity=61 time=0.23124999999999998\n",
      "note_off channel=0 note=59 velocity=62 time=0.08645833333333333\n",
      "note_off channel=0 note=65 velocity=28 time=0.0875\n",
      "note_on channel=0 note=51 velocity=65 time=0.065625\n",
      "note_on channel=0 note=67 velocity=61 time=0.014583333333333334\n",
      "note_off channel=0 note=53 velocity=56 time=0.014583333333333334\n",
      "note_on channel=0 note=60 velocity=39 time=0\n",
      "note_off channel=0 note=62 velocity=42 time=0.09166666666666666\n",
      "note_off channel=0 note=68 velocity=38 time=0.010416666666666666\n",
      "note_on channel=0 note=63 velocity=60 time=0.12604166666666666\n",
      "note_on channel=0 note=65 velocity=57 time=0.253125\n",
      "note_off channel=0 note=63 velocity=58 time=0.004166666666666667\n",
      "note_on channel=0 note=50 velocity=52 time=0.0125\n",
      "note_off channel=0 note=60 velocity=36 time=0.029166666666666667\n",
      "note_off channel=0 note=51 velocity=49 time=0.05\n",
      "note_on channel=0 note=59 velocity=51 time=0.14166666666666666\n",
      "note_on channel=0 note=51 velocity=61 time=0.25\n",
      "note_off channel=0 note=50 velocity=54 time=0.035416666666666666\n",
      "note_off channel=0 note=59 velocity=49 time=0.071875\n",
      "note_on channel=0 note=55 velocity=49 time=0.17083333333333334\n",
      "note_off channel=0 note=55 velocity=60 time=0.17708333333333334\n",
      "note_on channel=0 note=63 velocity=50 time=0.046875\n",
      "note_on channel=0 note=60 velocity=46 time=0.0020833333333333333\n",
      "note_off channel=0 note=65 velocity=55 time=0.003125\n",
      "note_on channel=0 note=55 velocity=47 time=0.2375\n",
      "note_off channel=0 note=55 velocity=50 time=0.24687499999999998\n",
      "note_on channel=0 note=56 velocity=42 time=0.057291666666666664\n",
      "note_on channel=0 note=72 velocity=52 time=0.014583333333333334\n",
      "note_off channel=0 note=63 velocity=37 time=0.0375\n",
      "note_off channel=0 note=51 velocity=46 time=0.009375\n",
      "note_off channel=0 note=67 velocity=40 time=0.0020833333333333333\n",
      "note_on channel=0 note=64 velocity=44 time=0.23333333333333334\n",
      "note_off channel=0 note=56 velocity=55 time=0.24791666666666667\n",
      "note_on channel=0 note=65 velocity=48 time=0\n",
      "note_off channel=0 note=64 velocity=60 time=0.004166666666666667\n",
      "note_on channel=0 note=58 velocity=44 time=0\n",
      "note_on channel=0 note=55 velocity=41 time=0.0125\n",
      "note_off channel=0 note=60 velocity=49 time=0.09270833333333334\n",
      "note_on channel=0 note=67 velocity=59 time=0.134375\n",
      "note_off channel=0 note=65 velocity=34 time=0.04583333333333333\n",
      "note_off channel=0 note=55 velocity=59 time=0.15104166666666666\n",
      "note_on channel=0 note=56 velocity=49 time=0.05625\n",
      "note_on channel=0 note=68 velocity=57 time=0.008333333333333333\n",
      "note_off channel=0 note=67 velocity=55 time=0.007291666666666667\n",
      "note_on channel=0 note=53 velocity=36 time=0.007291666666666667\n",
      "note_off channel=0 note=58 velocity=51 time=0.003125\n",
      "note_on channel=0 note=67 velocity=57 time=0.22708333333333333\n",
      "note_off channel=0 note=68 velocity=51 time=0.06979166666666667\n",
      "note_off channel=0 note=56 velocity=61 time=0.06666666666666667\n",
      "note_on channel=0 note=62 velocity=51 time=0.09270833333333334\n",
      "note_on channel=0 note=65 velocity=56 time=0.025\n",
      "note_off channel=0 note=67 velocity=54 time=0.04895833333333333\n",
      "note_on channel=0 note=63 velocity=56 time=0.18333333333333332\n",
      "note_off channel=0 note=53 velocity=44 time=0.027083333333333334\n",
      "note_off channel=0 note=62 velocity=57 time=0.041666666666666664\n",
      "note_off channel=0 note=65 velocity=59 time=0.004166666666666667\n",
      "note_off channel=0 note=63 velocity=60 time=0.11979166666666667\n"
     ]
    },
    {
     "name": "stdout",
     "output_type": "stream",
     "text": [
      "note_on channel=0 note=62 velocity=57 time=0.051041666666666666\n",
      "note_on channel=0 note=67 velocity=56 time=0.007291666666666667\n",
      "note_on channel=0 note=55 velocity=47 time=0.013541666666666667\n",
      "note_on channel=0 note=71 velocity=60 time=0.24270833333333333\n",
      "note_off channel=0 note=72 velocity=45 time=0.00625\n",
      "note_off channel=0 note=67 velocity=58 time=0.05416666666666667\n",
      "note_on channel=0 note=57 velocity=55 time=0.17291666666666666\n",
      "note_on channel=0 note=72 velocity=61 time=0.003125\n",
      "note_off channel=0 note=71 velocity=60 time=0.0010416666666666667\n",
      "note_on channel=0 note=65 velocity=42 time=0.02395833333333333\n",
      "note_off channel=0 note=55 velocity=34 time=0.071875\n",
      "note_on channel=0 note=74 velocity=71 time=0.11458333333333333\n",
      "note_off channel=0 note=72 velocity=59 time=0.004166666666666667\n",
      "note_off channel=0 note=57 velocity=57 time=0.015625\n",
      "note_on channel=0 note=59 velocity=63 time=0\n",
      "note_on channel=0 note=67 velocity=65 time=0.2375\n",
      "note_on channel=0 note=60 velocity=58 time=0.022916666666666665\n",
      "note_off channel=0 note=59 velocity=50 time=0.016666666666666666\n",
      "note_off channel=0 note=74 velocity=42 time=0.029166666666666667\n",
      "note_off channel=0 note=62 velocity=56 time=0.01875\n",
      "note_off channel=0 note=65 velocity=41 time=0.05520833333333333\n",
      "note_off channel=0 note=60 velocity=62 time=0.040625\n",
      "note_off channel=0 note=67 velocity=64 time=0.07291666666666667\n",
      "note_on channel=0 note=63 velocity=69 time=0.0125\n",
      "note_on channel=0 note=68 velocity=64 time=0.24479166666666666\n",
      "note_on channel=0 note=60 velocity=52 time=0.015625\n",
      "note_on channel=0 note=48 velocity=51 time=0.007291666666666667\n",
      "note_on channel=0 note=65 velocity=67 time=0.24270833333333333\n",
      "note_off channel=0 note=68 velocity=53 time=0.04791666666666666\n",
      "note_off channel=0 note=63 velocity=19 time=0.140625\n",
      "note_off channel=0 note=48 velocity=59 time=0.021875\n",
      "note_on channel=0 note=47 velocity=64 time=0.021875\n",
      "note_on channel=0 note=67 velocity=63 time=0.015625\n",
      "note_on channel=0 note=62 velocity=56 time=0.004166666666666667\n",
      "note_off channel=0 note=65 velocity=55 time=0.013541666666666667\n",
      "note_on channel=0 note=65 velocity=69 time=0.234375\n",
      "note_off channel=0 note=47 velocity=60 time=0.15\n",
      "note_off channel=0 note=60 velocity=50 time=0.021875\n",
      "note_off channel=0 note=67 velocity=30 time=0.004166666666666667\n",
      "note_off channel=0 note=62 velocity=39 time=0.005208333333333333\n",
      "note_on channel=0 note=63 velocity=69 time=0.06875\n",
      "note_on channel=0 note=60 velocity=53 time=0.0020833333333333333\n",
      "note_on channel=0 note=48 velocity=65 time=0.007291666666666667\n",
      "note_off channel=0 note=65 velocity=46 time=0.21666666666666667\n",
      "note_on channel=0 note=69 velocity=73 time=0.020833333333333332\n",
      "note_off channel=0 note=63 velocity=62 time=0.03854166666666667\n",
      "note_off channel=0 note=48 velocity=59 time=0.21041666666666667\n",
      "note_on channel=0 note=70 velocity=75 time=0\n",
      "note_off channel=0 note=60 velocity=36 time=0.0020833333333333333\n",
      "note_on channel=0 note=50 velocity=57 time=0.004166666666666667\n",
      "note_on channel=0 note=53 velocity=55 time=0.014583333333333334\n",
      "note_off channel=0 note=69 velocity=57 time=0.025\n",
      "note_off channel=0 note=53 velocity=62 time=0.19791666666666666\n",
      "note_on channel=0 note=65 velocity=73 time=0.005208333333333333\n",
      "note_off channel=0 note=50 velocity=64 time=0.084375\n",
      "note_off channel=0 note=70 velocity=59 time=0.159375\n",
      "note_on channel=0 note=63 velocity=68 time=0.011458333333333333\n",
      "note_on channel=0 note=71 velocity=67 time=0.005208333333333333\n",
      "note_on channel=0 note=43 velocity=60 time=0.0020833333333333333\n",
      "note_on channel=0 note=55 velocity=50 time=0.0125\n",
      "note_off channel=0 note=63 velocity=62 time=0.12916666666666665\n",
      "note_on channel=0 note=62 velocity=76 time=0.09375\n",
      "note_off channel=0 note=62 velocity=61 time=0.12083333333333333\n",
      "note_off channel=0 note=65 velocity=17 time=0.04375\n",
      "note_on channel=0 note=48 velocity=58 time=0.09895833333333333\n",
      "note_on channel=0 note=63 velocity=76 time=0.011458333333333333\n",
      "note_off channel=0 note=71 velocity=37 time=0.11458333333333333\n",
      "note_off channel=0 note=43 velocity=37 time=0.090625\n",
      "note_on channel=0 note=67 velocity=75 time=0.022916666666666665\n",
      "note_off channel=0 note=55 velocity=57 time=0.03125\n",
      "note_off channel=0 note=48 velocity=56 time=0.20104166666666667\n",
      "note_on channel=0 note=47 velocity=57 time=0.016666666666666666\n",
      "note_on channel=0 note=57 velocity=57 time=0.004166666666666667\n",
      "note_on channel=0 note=72 velocity=74 time=0.0020833333333333333\n",
      "note_off channel=0 note=67 velocity=52 time=0.11875\n",
      "note_off channel=0 note=47 velocity=55 time=0.03854166666666667\n",
      "note_off channel=0 note=72 velocity=62 time=0.065625\n",
      "note_on channel=0 note=66 velocity=70 time=0.013541666666666667\n",
      "note_on channel=0 note=45 velocity=65 time=0.0020833333333333333\n",
      "note_off channel=0 note=57 velocity=57 time=0.13333333333333333\n",
      "note_off channel=0 note=63 velocity=61 time=0.06041666666666667\n",
      "note_off channel=0 note=45 velocity=59 time=0.0010416666666666667\n",
      "note_off channel=0 note=66 velocity=63 time=0.028125\n",
      "note_on channel=0 note=67 velocity=71 time=0.02395833333333333\n",
      "note_on channel=0 note=47 velocity=57 time=0.015625\n",
      "note_on channel=0 note=55 velocity=64 time=0.008333333333333333\n",
      "note_on channel=0 note=62 velocity=71 time=0.23229166666666667\n",
      "note_off channel=0 note=47 velocity=65 time=0.18020833333333333\n",
      "note_on channel=0 note=48 velocity=63 time=0.078125\n",
      "note_on channel=0 note=63 velocity=72 time=0.004166666666666667\n",
      "note_off channel=0 note=67 velocity=58 time=0.05416666666666667\n",
      "note_off channel=0 note=62 velocity=60 time=0.178125\n",
      "note_off channel=0 note=63 velocity=62 time=0.020833333333333332\n",
      "note_on channel=0 note=60 velocity=71 time=0\n",
      "note_off channel=0 note=55 velocity=34 time=0.11041666666666666\n",
      "note_off channel=0 note=48 velocity=62 time=0.10833333333333334\n",
      "note_on channel=0 note=62 velocity=74 time=0.03333333333333333\n",
      "note_on channel=0 note=41 velocity=57 time=0.0020833333333333333\n",
      "note_off channel=0 note=60 velocity=56 time=0.06666666666666667\n",
      "note_on channel=0 note=57 velocity=72 time=0.20833333333333334\n",
      "note_off channel=0 note=62 velocity=40 time=0.23229166666666667\n",
      "note_off channel=0 note=41 velocity=61 time=0.017708333333333333\n",
      "note_on channel=0 note=59 velocity=75 time=0.030208333333333334\n",
      "note_on channel=0 note=43 velocity=64 time=0.0125\n",
      "note_off channel=0 note=57 velocity=58 time=0.04583333333333333\n",
      "note_on channel=0 note=53 velocity=71 time=0.22604166666666667\n",
      "note_on channel=0 note=51 velocity=68 time=0.41041666666666665\n",
      "note_on channel=0 note=60 velocity=76 time=0.0020833333333333333\n",
      "note_off channel=0 note=53 velocity=0 time=0.00625\n",
      "note_on channel=0 note=36 velocity=63 time=0.009375\n",
      "note_off channel=0 note=43 velocity=56 time=0.022916666666666665\n",
      "note_off channel=0 note=59 velocity=53 time=0.03854166666666667\n",
      "note_off channel=0 note=51 velocity=62 time=0.3125\n",
      "note_off channel=0 note=60 velocity=61 time=0.08958333333333333\n",
      "note_off channel=0 note=36 velocity=61 time=0.18229166666666666\n",
      "note_on channel=0 note=67 velocity=70 time=0.00625\n",
      "note_on channel=0 note=63 velocity=66 time=0.571875\n",
      "note_off channel=0 note=67 velocity=58 time=0.06354166666666666\n",
      "note_on channel=0 note=72 velocity=71 time=0.48020833333333335\n",
      "note_on channel=0 note=65 velocity=67 time=0.004166666666666667\n",
      "note_off channel=0 note=63 velocity=61 time=0.01875\n",
      "note_off channel=0 note=65 velocity=60 time=0.3677083333333333\n",
      "note_on channel=0 note=67 velocity=67 time=0.15729166666666666\n",
      "note_on channel=0 note=71 velocity=70 time=0.0020833333333333333\n",
      "note_off channel=0 note=72 velocity=59 time=0.04479166666666667\n",
      "note_on channel=0 note=63 velocity=73 time=0.5020833333333333\n",
      "note_on channel=0 note=72 velocity=78 time=0.0020833333333333333\n",
      "note_on channel=0 note=60 velocity=72 time=0.003125\n",
      "note_off channel=0 note=67 velocity=62 time=0.003125\n",
      "note_off channel=0 note=71 velocity=52 time=0.004166666666666667\n",
      "note_off channel=0 note=60 velocity=60 time=0.37083333333333335\n",
      "note_off channel=0 note=72 velocity=60 time=0.022916666666666665\n",
      "note_on channel=0 note=74 velocity=79 time=0.13645833333333332\n",
      "note_on channel=0 note=59 velocity=70 time=0.010416666666666666\n",
      "note_off channel=0 note=63 velocity=63 time=0.007291666666666667\n",
      "note_on channel=0 note=65 velocity=66 time=0\n",
      "note_off channel=0 note=74 velocity=34 time=0.3541666666666667\n",
      "note_off channel=0 note=65 velocity=60 time=0.04375\n",
      "note_off channel=0 note=59 velocity=63 time=0.09375\n",
      "note_on channel=0 note=67 velocity=71 time=0.035416666666666666\n",
      "note_on channel=0 note=60 velocity=68 time=0.008333333333333333\n",
      "note_on channel=0 note=63 velocity=72 time=0.0020833333333333333\n"
     ]
    },
    {
     "name": "stdout",
     "output_type": "stream",
     "text": [
      "note_off channel=0 note=63 velocity=61 time=0.21562499999999998\n",
      "note_on channel=0 note=62 velocity=74 time=0.0125\n",
      "note_off channel=0 note=62 velocity=60 time=0.25\n",
      "note_on channel=0 note=48 velocity=68 time=0.036458333333333336\n",
      "note_off channel=0 note=67 velocity=62 time=0.008333333333333333\n",
      "note_on channel=0 note=64 velocity=71 time=0.0010416666666666667\n",
      "note_off channel=0 note=60 velocity=60 time=0.004166666666666667\n",
      "note_on channel=0 note=72 velocity=79 time=0\n",
      "note_on channel=0 note=55 velocity=64 time=0.003125\n",
      "note_off channel=0 note=64 velocity=56 time=0.44687499999999997\n",
      "note_off channel=0 note=55 velocity=57 time=0.036458333333333336\n",
      "note_off channel=0 note=48 velocity=61 time=0.02395833333333333\n",
      "note_on channel=0 note=70 velocity=68 time=0.011458333333333333\n",
      "note_on channel=0 note=65 velocity=65 time=0.009375\n",
      "note_off channel=0 note=72 velocity=54 time=0.026041666666666668\n",
      "note_on channel=0 note=68 velocity=76 time=0.20729166666666665\n",
      "note_off channel=0 note=70 velocity=60 time=0.06354166666666666\n",
      "note_off channel=0 note=65 velocity=52 time=0.008333333333333333\n",
      "note_on channel=0 note=67 velocity=73 time=0.20520833333333333\n",
      "note_on channel=0 note=70 velocity=67 time=0.004166666666666667\n",
      "note_off channel=0 note=68 velocity=59 time=0.04479166666666667\n",
      "note_off channel=0 note=70 velocity=56 time=0.3989583333333333\n",
      "note_off channel=0 note=67 velocity=63 time=0.06666666666666667\n",
      "note_on channel=0 note=72 velocity=67 time=0.004166666666666667\n",
      "note_on channel=0 note=65 velocity=72 time=0.0020833333333333333\n",
      "note_on channel=0 note=64 velocity=71 time=0.234375\n",
      "note_off channel=0 note=65 velocity=59 time=0.034375\n",
      "note_off channel=0 note=64 velocity=63 time=0.22708333333333333\n",
      "note_on channel=0 note=68 velocity=68 time=0.016666666666666666\n",
      "note_on channel=0 note=65 velocity=67 time=0.008333333333333333\n",
      "note_off channel=0 note=72 velocity=59 time=0.071875\n",
      "note_off channel=0 note=65 velocity=58 time=0.4166666666666667\n",
      "note_on channel=0 note=61 velocity=69 time=0.03229166666666666\n",
      "note_on channel=0 note=67 velocity=68 time=0.009375\n",
      "note_on channel=0 note=70 velocity=67 time=0.005208333333333333\n",
      "note_off channel=0 note=68 velocity=58 time=0.04583333333333333\n",
      "note_on channel=0 note=72 velocity=70 time=0.49583333333333335\n",
      "note_off channel=0 note=67 velocity=62 time=0.0010416666666666667\n",
      "note_on channel=0 note=55 velocity=66 time=0.003125\n",
      "note_on channel=0 note=64 velocity=63 time=0.0020833333333333333\n",
      "note_off channel=0 note=70 velocity=47 time=0.013541666666666667\n",
      "note_off channel=0 note=61 velocity=53 time=0.08229166666666667\n",
      "note_off channel=0 note=55 velocity=57 time=0.4114583333333333\n",
      "note_on channel=0 note=56 velocity=62 time=0.004166666666666667\n",
      "note_on channel=0 note=65 velocity=68 time=0.003125\n",
      "note_off channel=0 note=72 velocity=60 time=0.06666666666666667\n",
      "note_off channel=0 note=64 velocity=56 time=0.03229166666666666\n",
      "note_on channel=0 note=67 velocity=63 time=0.43645833333333334\n",
      "note_on channel=0 note=70 velocity=63 time=0.0020833333333333333\n",
      "note_on channel=0 note=52 velocity=54 time=0.0020833333333333333\n",
      "note_on channel=0 note=48 velocity=57 time=0.003125\n",
      "note_off channel=0 note=56 velocity=58 time=0.03854166666666667\n",
      "note_off channel=0 note=65 velocity=29 time=0.11458333333333333\n",
      "note_off channel=0 note=67 velocity=57 time=0.11145833333333333\n",
      "note_off channel=0 note=48 velocity=49 time=0.19583333333333333\n",
      "note_off channel=0 note=70 velocity=52 time=0.026041666666666668\n",
      "note_on channel=0 note=60 velocity=71 time=0.020833333333333332\n",
      "note_on channel=0 note=68 velocity=65 time=0.0020833333333333333\n",
      "note_off channel=0 note=52 velocity=60 time=0.03125\n",
      "note_off channel=0 note=68 velocity=59 time=0.134375\n",
      "note_on channel=0 note=67 velocity=68 time=0.10625\n",
      "note_off channel=0 note=67 velocity=58 time=0.2583333333333333\n",
      "note_on channel=0 note=68 velocity=72 time=0.008333333333333333\n",
      "note_on channel=0 note=56 velocity=74 time=0.003125\n",
      "note_on channel=0 note=65 velocity=64 time=0.013541666666666667\n",
      "note_off channel=0 note=60 velocity=59 time=0.0625\n",
      "note_off channel=0 note=68 velocity=59 time=0.3697916666666667\n",
      "note_on channel=0 note=67 velocity=62 time=0.05520833333333333\n",
      "note_on channel=0 note=58 velocity=71 time=0.0020833333333333333\n",
      "note_on channel=0 note=64 velocity=62 time=0.017708333333333333\n",
      "note_off channel=0 note=65 velocity=51 time=0.017708333333333333\n",
      "note_off channel=0 note=56 velocity=60 time=0.00625\n",
      "note_on channel=0 note=62 velocity=71 time=0.184375\n",
      "note_off channel=0 note=64 velocity=61 time=0.035416666666666666\n",
      "note_off channel=0 note=62 velocity=61 time=0.18854166666666666\n",
      "note_on channel=0 note=64 velocity=70 time=0.04583333333333333\n",
      "note_on channel=0 note=60 velocity=68 time=0.003125\n",
      "note_off channel=0 note=58 velocity=63 time=0.019791666666666666\n",
      "note_off channel=0 note=64 velocity=61 time=0.20729166666666665\n",
      "note_off channel=0 note=67 velocity=62 time=0.15208333333333332\n",
      "note_on channel=0 note=69 velocity=61 time=0.11145833333333333\n",
      "note_on channel=0 note=63 velocity=55 time=0.0125\n",
      "note_on channel=0 note=48 velocity=55 time=0.003125\n",
      "note_on channel=0 note=53 velocity=54 time=0.011458333333333333\n",
      "note_off channel=0 note=60 velocity=61 time=0.08229166666666667\n",
      "note_on channel=0 note=70 velocity=62 time=0.17708333333333334\n",
      "note_off channel=0 note=69 velocity=48 time=0.10208333333333333\n",
      "note_on channel=0 note=72 velocity=75 time=0.004166666666666667\n",
      "note_off channel=0 note=63 velocity=62 time=0.013541666666666667\n",
      "note_off channel=0 note=70 velocity=58 time=0.04791666666666666\n",
      "note_off channel=0 note=48 velocity=62 time=0.02395833333333333\n",
      "note_off channel=0 note=53 velocity=62 time=0.020833333333333332\n",
      "note_on channel=0 note=49 velocity=67 time=0.016666666666666666\n",
      "note_on channel=0 note=58 velocity=61 time=0.014583333333333334\n",
      "note_on channel=0 note=65 velocity=73 time=0.013541666666666667\n",
      "note_on channel=0 note=61 velocity=70 time=0.003125\n",
      "note_off channel=0 note=72 velocity=52 time=0.12604166666666666\n",
      "note_off channel=0 note=61 velocity=57 time=0.153125\n",
      "note_off channel=0 note=49 velocity=61 time=0.175\n",
      "note_on channel=0 note=72 velocity=73 time=0.021875\n",
      "note_on channel=0 note=63 velocity=75 time=0.0020833333333333333\n",
      "note_on channel=0 note=56 velocity=69 time=0.004166666666666667\n",
      "note_on channel=0 note=48 velocity=57 time=0.00625\n",
      "note_off channel=0 note=58 velocity=59 time=0.0010416666666666667\n",
      "note_off channel=0 note=65 velocity=51 time=0.051041666666666666\n",
      "note_on channel=0 note=55 velocity=73 time=0.17083333333333334\n",
      "note_off channel=0 note=63 velocity=57 time=0.059375\n",
      "note_off channel=0 note=56 velocity=59 time=0.008333333333333333\n",
      "note_off channel=0 note=48 velocity=59 time=0.00625\n",
      "note_off channel=0 note=72 velocity=60 time=0.08541666666666667\n",
      "note_on channel=0 note=56 velocity=66 time=0.12708333333333333\n",
      "note_on channel=0 note=47 velocity=67 time=0.0020833333333333333\n",
      "note_on channel=0 note=65 velocity=66 time=0.005208333333333333\n",
      "note_on channel=0 note=74 velocity=79 time=0.0020833333333333333\n",
      "note_off channel=0 note=55 velocity=59 time=0.040625\n",
      "note_off channel=0 note=74 velocity=58 time=0.259375\n"
     ]
    },
    {
     "ename": "KeyboardInterrupt",
     "evalue": "",
     "output_type": "error",
     "traceback": [
      "\u001b[0;31m---------------------------------------------------------------------------\u001b[0m",
      "\u001b[0;31mKeyboardInterrupt\u001b[0m                         Traceback (most recent call last)",
      "\u001b[0;32m<ipython-input-3-5eb83b305b82>\u001b[0m in \u001b[0;36m<module>\u001b[0;34m()\u001b[0m\n\u001b[1;32m      1\u001b[0m \u001b[0mmid\u001b[0m \u001b[0;34m=\u001b[0m \u001b[0mmido\u001b[0m\u001b[0;34m.\u001b[0m\u001b[0mMidiFile\u001b[0m\u001b[0;34m(\u001b[0m\u001b[0mmidi_file_path\u001b[0m\u001b[0;34m)\u001b[0m\u001b[0;34m\u001b[0m\u001b[0m\n\u001b[0;32m----> 2\u001b[0;31m \u001b[0;32mfor\u001b[0m \u001b[0mmsg\u001b[0m \u001b[0;32min\u001b[0m \u001b[0mmid\u001b[0m\u001b[0;34m.\u001b[0m\u001b[0mplay\u001b[0m\u001b[0;34m(\u001b[0m\u001b[0;34m)\u001b[0m\u001b[0;34m:\u001b[0m\u001b[0;34m\u001b[0m\u001b[0m\n\u001b[0m\u001b[1;32m      3\u001b[0m     \u001b[0mprint\u001b[0m\u001b[0;34m(\u001b[0m\u001b[0mmsg\u001b[0m\u001b[0;34m)\u001b[0m\u001b[0;34m\u001b[0m\u001b[0m\n",
      "\u001b[0;32m~/anaconda2/envs/py36/lib/python3.6/site-packages/mido/midifiles/midifiles.py\u001b[0m in \u001b[0;36mplay\u001b[0;34m(self, meta_messages)\u001b[0m\n\u001b[1;32m    389\u001b[0m \u001b[0;34m\u001b[0m\u001b[0m\n\u001b[1;32m    390\u001b[0m         \u001b[0;32mfor\u001b[0m \u001b[0mmsg\u001b[0m \u001b[0;32min\u001b[0m \u001b[0mself\u001b[0m\u001b[0;34m:\u001b[0m\u001b[0;34m\u001b[0m\u001b[0m\n\u001b[0;32m--> 391\u001b[0;31m             \u001b[0msleep\u001b[0m\u001b[0;34m(\u001b[0m\u001b[0mmsg\u001b[0m\u001b[0;34m.\u001b[0m\u001b[0mtime\u001b[0m\u001b[0;34m)\u001b[0m\u001b[0;34m\u001b[0m\u001b[0m\n\u001b[0m\u001b[1;32m    392\u001b[0m \u001b[0;34m\u001b[0m\u001b[0m\n\u001b[1;32m    393\u001b[0m             \u001b[0;32mif\u001b[0m \u001b[0misinstance\u001b[0m\u001b[0;34m(\u001b[0m\u001b[0mmsg\u001b[0m\u001b[0;34m,\u001b[0m \u001b[0mMetaMessage\u001b[0m\u001b[0;34m)\u001b[0m \u001b[0;32mand\u001b[0m \u001b[0;32mnot\u001b[0m \u001b[0mmeta_messages\u001b[0m\u001b[0;34m:\u001b[0m\u001b[0;34m\u001b[0m\u001b[0m\n",
      "\u001b[0;31mKeyboardInterrupt\u001b[0m: "
     ]
    }
   ],
   "source": [
    "mid = mido.MidiFile(midi_file_path)\n",
    "for msg in mid.play():\n",
    "    print(msg)"
   ]
  },
  {
   "cell_type": "markdown",
   "metadata": {},
   "source": [
    "We want all events happening at the same time. What I'll do is this:\n",
    "\n",
    "- iterate thru MIDI messages\n",
    "- every time I encounter a new time that wasn't there before, add the time to a dict / hash table\n",
    "- store the message as an element with the key corresponding to its time in the dict / hash table"
   ]
  },
  {
   "cell_type": "code",
   "execution_count": 5,
   "metadata": {
    "collapsed": true
   },
   "outputs": [],
   "source": [
    "# save the file\n",
    "import pickle as pickle\n",
    "def save_obj(obj, name ):\n",
    "    with open(name + '.pkl', 'wb') as f:\n",
    "        pickle.dump(obj, f, pickle.HIGHEST_PROTOCOL)"
   ]
  },
  {
   "cell_type": "code",
   "execution_count": 6,
   "metadata": {
    "collapsed": true
   },
   "outputs": [],
   "source": [
    "def load_obj(name ):\n",
    "    with open(name + '.pkl', 'rb') as f:\n",
    "        return pickle.load(f)"
   ]
  },
  {
   "cell_type": "code",
   "execution_count": 7,
   "metadata": {
    "collapsed": true
   },
   "outputs": [],
   "source": [
    "midi_time_dict = {}"
   ]
  },
  {
   "cell_type": "code",
   "execution_count": null,
   "metadata": {},
   "outputs": [],
   "source": [
    "mid = mido.MidiFile(midi_file_path)\n",
    "for msg in mid.play():\n",
    "    time = msg.time\n",
    "    if time not in midi_time_dict.keys():\n",
    "        midi_time_dict[time] = [msg]\n",
    "    else:\n",
    "        print(\"already existing time... appending\")\n",
    "        midi_time_dict[time].append(msg)"
   ]
  },
  {
   "cell_type": "code",
   "execution_count": null,
   "metadata": {
    "collapsed": true
   },
   "outputs": [],
   "source": []
  }
 ],
 "metadata": {
  "kernelspec": {
   "display_name": "Python [conda env:py36]",
   "language": "python",
   "name": "conda-env-py36-py"
  },
  "language_info": {
   "codemirror_mode": {
    "name": "ipython",
    "version": 3
   },
   "file_extension": ".py",
   "mimetype": "text/x-python",
   "name": "python",
   "nbconvert_exporter": "python",
   "pygments_lexer": "ipython3",
   "version": "3.6.4"
  }
 },
 "nbformat": 4,
 "nbformat_minor": 2
}
